solid ASCII
  facet normal -5.679089e-31 1.000000e+00 2.797412e-16
    outer loop
      vertex   2.500000e+01 1.407700e+01 6.649900e+01
      vertex   2.500000e+01 1.407700e+01 4.109900e+01
      vertex   1.800000e+01 1.407700e+01 6.649900e+01
    endloop
  endfacet
  facet normal 5.075305e-16 1.000000e+00 4.196119e-16
    outer loop
      vertex   1.800000e+01 1.407700e+01 6.649900e+01
      vertex   2.500000e+01 1.407700e+01 4.109900e+01
      vertex   1.800000e+01 1.407700e+01 4.109900e+01
    endloop
  endfacet
  facet normal 0.000000e+00 0.000000e+00 1.000000e+00
    outer loop
      vertex   2.500000e+01 1.407700e+01 6.649900e+01
      vertex   3.050000e+01 4.347700e+01 6.649900e+01
      vertex   2.500000e+01 4.047700e+01 6.649900e+01
    endloop
  endfacet
  facet normal 0.000000e+00 -0.000000e+00 1.000000e+00
    outer loop
      vertex   2.500000e+01 4.047700e+01 6.649900e+01
      vertex   3.050000e+01 4.347700e+01 6.649900e+01
      vertex   1.500000e+01 4.347700e+01 6.649900e+01
    endloop
  endfacet
  facet normal 0.000000e+00 0.000000e+00 1.000000e+00
    outer loop
      vertex   2.500000e+01 4.047700e+01 6.649900e+01
      vertex   1.500000e+01 4.347700e+01 6.649900e+01
      vertex   1.800000e+01 4.047700e+01 6.649900e+01
    endloop
  endfacet
  facet normal 0.000000e+00 0.000000e+00 1.000000e+00
    outer loop
      vertex   1.800000e+01 4.047700e+01 6.649900e+01
      vertex   1.500000e+01 4.347700e+01 6.649900e+01
      vertex   1.500000e+01 3.647700e+01 6.649900e+01
    endloop
  endfacet
  facet normal 0.000000e+00 0.000000e+00 1.000000e+00
    outer loop
      vertex   1.800000e+01 4.047700e+01 6.649900e+01
      vertex   1.500000e+01 3.647700e+01 6.649900e+01
      vertex   1.800000e+01 3.647700e+01 6.649900e+01
    endloop
  endfacet
  facet normal 2.043347e-15 -3.822588e-16 1.000000e+00
    outer loop
      vertex   3.050000e+01 4.347700e+01 6.649900e+01
      vertex   2.500000e+01 1.407700e+01 6.649900e+01
      vertex   3.050000e+01 6.301000e+00 6.649900e+01
    endloop
  endfacet
  facet normal -2.030122e-15 -3.263442e-15 1.000000e+00
    outer loop
      vertex   3.050000e+01 6.301000e+00 6.649900e+01
      vertex   2.500000e+01 1.407700e+01 6.649900e+01
      vertex   1.800000e+01 1.407700e+01 6.649900e+01
    endloop
  endfacet
  facet normal 0.000000e+00 0.000000e+00 1.000000e+00
    outer loop
      vertex   3.050000e+01 6.301000e+00 6.649900e+01
      vertex   1.800000e+01 1.407700e+01 6.649900e+01
      vertex   1.250000e+01 6.301000e+00 6.649900e+01
    endloop
  endfacet
  facet normal 1.706145e-15 -1.206764e-15 1.000000e+00
    outer loop
      vertex   1.250000e+01 6.301000e+00 6.649900e+01
      vertex   1.800000e+01 1.407700e+01 6.649900e+01
      vertex   1.250000e+01 1.807700e+01 6.649900e+01
    endloop
  endfacet
  facet normal 2.583792e-15 0.000000e+00 1.000000e+00
    outer loop
      vertex   1.250000e+01 1.807700e+01 6.649900e+01
      vertex   1.800000e+01 1.407700e+01 6.649900e+01
      vertex   1.800000e+01 1.807700e+01 6.649900e+01
    endloop
  endfacet
  facet normal 1.000000e+00 -0.000000e+00 0.000000e+00
    outer loop
      vertex   1.800000e+01 3.647700e+01 6.649900e+01
      vertex   1.800000e+01 3.647700e+01 4.109900e+01
      vertex   1.800000e+01 4.047700e+01 6.649900e+01
    endloop
  endfacet
  facet normal 1.000000e+00 0.000000e+00 0.000000e+00
    outer loop
      vertex   1.800000e+01 4.047700e+01 6.649900e+01
      vertex   1.800000e+01 3.647700e+01 4.109900e+01
      vertex   1.800000e+01 4.047700e+01 4.109900e+01
    endloop
  endfacet
  facet normal 0.000000e+00 -1.000000e+00 -2.797412e-16
    outer loop
      vertex   1.800000e+01 4.047700e+01 6.649900e+01
      vertex   1.800000e+01 4.047700e+01 4.109900e+01
      vertex   2.500000e+01 4.047700e+01 6.649900e+01
    endloop
  endfacet
  facet normal 5.679089e-31 -1.000000e+00 -2.797412e-16
    outer loop
      vertex   2.500000e+01 4.047700e+01 6.649900e+01
      vertex   1.800000e+01 4.047700e+01 4.109900e+01
      vertex   2.500000e+01 4.047700e+01 4.109900e+01
    endloop
  endfacet
  facet normal 0.000000e+00 -1.000000e+00 0.000000e+00
    outer loop
      vertex   1.500000e+01 3.647700e+01 6.649900e+01
      vertex   1.500000e+01 3.647700e+01 4.109900e+01
      vertex   1.800000e+01 3.647700e+01 6.649900e+01
    endloop
  endfacet
  facet normal 0.000000e+00 -1.000000e+00 -0.000000e+00
    outer loop
      vertex   1.800000e+01 3.647700e+01 6.649900e+01
      vertex   1.500000e+01 3.647700e+01 4.109900e+01
      vertex   1.800000e+01 3.647700e+01 4.109900e+01
    endloop
  endfacet
  facet normal -1.000000e+00 0.000000e+00 0.000000e+00
    outer loop
      vertex   1.500000e+01 3.647700e+01 4.109900e+01
      vertex   1.500000e+01 3.647700e+01 6.649900e+01
      vertex   1.500000e+01 4.347700e+01 4.109900e+01
    endloop
  endfacet
  facet normal -1.000000e+00 0.000000e+00 0.000000e+00
    outer loop
      vertex   1.500000e+01 4.347700e+01 4.109900e+01
      vertex   1.500000e+01 3.647700e+01 6.649900e+01
      vertex   1.500000e+01 4.347700e+01 6.649900e+01
    endloop
  endfacet
  facet normal -0.000000e+00 1.000000e+00 2.797412e-16
    outer loop
      vertex   1.500000e+01 4.347700e+01 4.109900e+01
      vertex   1.500000e+01 4.347700e+01 6.649900e+01
      vertex   3.050000e+01 4.347700e+01 4.109900e+01
    endloop
  endfacet
  facet normal 0.000000e+00 1.000000e+00 2.797412e-16
    outer loop
      vertex   3.050000e+01 4.347700e+01 4.109900e+01
      vertex   1.500000e+01 4.347700e+01 6.649900e+01
      vertex   3.050000e+01 4.347700e+01 6.649900e+01
    endloop
  endfacet
  facet normal 1.000000e+00 -0.000000e+00 0.000000e+00
    outer loop
      vertex   1.800000e+01 1.407700e+01 6.649900e+01
      vertex   1.800000e+01 1.407700e+01 4.109900e+01
      vertex   1.800000e+01 1.807700e+01 6.649900e+01
    endloop
  endfacet
  facet normal 1.000000e+00 0.000000e+00 0.000000e+00
    outer loop
      vertex   1.800000e+01 1.807700e+01 6.649900e+01
      vertex   1.800000e+01 1.407700e+01 4.109900e+01
      vertex   1.800000e+01 1.807700e+01 4.109900e+01
    endloop
  endfacet
  facet normal 7.227931e-31 1.000000e+00 2.797412e-16
    outer loop
      vertex   1.800000e+01 1.807700e+01 6.649900e+01
      vertex   1.800000e+01 1.807700e+01 4.109900e+01
      vertex   1.250000e+01 1.807700e+01 6.649900e+01
    endloop
  endfacet
  facet normal 7.227931e-31 1.000000e+00 2.797412e-16
    outer loop
      vertex   1.250000e+01 1.807700e+01 6.649900e+01
      vertex   1.800000e+01 1.807700e+01 4.109900e+01
      vertex   1.250000e+01 1.807700e+01 4.109900e+01
    endloop
  endfacet
  facet normal -1.000000e+00 0.000000e+00 0.000000e+00
    outer loop
      vertex   2.500000e+01 1.407700e+01 6.649900e+01
      vertex   2.500000e+01 4.047700e+01 6.649900e+01
      vertex   2.500000e+01 1.407700e+01 4.109900e+01
    endloop
  endfacet
  facet normal -1.000000e+00 0.000000e+00 0.000000e+00
    outer loop
      vertex   2.500000e+01 1.407700e+01 4.109900e+01
      vertex   2.500000e+01 4.047700e+01 6.649900e+01
      vertex   2.500000e+01 4.047700e+01 4.109900e+01
    endloop
  endfacet
  facet normal -1.000000e+00 0.000000e+00 -0.000000e+00
    outer loop
      vertex   1.250000e+01 1.807700e+01 6.649900e+01
      vertex   1.250000e+01 1.807700e+01 4.109900e+01
      vertex   1.250000e+01 6.301000e+00 6.649900e+01
    endloop
  endfacet
  facet normal -1.000000e+00 0.000000e+00 0.000000e+00
    outer loop
      vertex   1.250000e+01 6.301000e+00 6.649900e+01
      vertex   1.250000e+01 1.807700e+01 4.109900e+01
      vertex   1.250000e+01 6.301000e+00 4.109900e+01
    endloop
  endfacet
  facet normal -1.000000e+00 0.000000e+00 -0.000000e+00
    outer loop
      vertex   1.250000e+01 6.301000e+00 6.649900e+01
      vertex   1.250000e+01 6.301000e+00 4.109900e+01
      vertex   1.250000e+01 3.301000e+00 2.260000e+01
    endloop
  endfacet
  facet normal -1.000000e+00 0.000000e+00 0.000000e+00
    outer loop
      vertex   1.250000e+01 3.301000e+00 2.260000e+01
      vertex   1.250000e+01 6.301000e+00 4.109900e+01
      vertex   1.250000e+01 6.301000e+00 2.260000e+01
    endloop
  endfacet
  facet normal -1.000000e+00 8.331227e-16 -5.693451e-17
    outer loop
      vertex   1.250000e+01 3.301000e+00 2.260000e+01
      vertex   1.250000e+01 3.301000e+00 8.500000e+01
      vertex   1.250000e+01 6.301000e+00 6.649900e+01
    endloop
  endfacet
  facet normal -1.000000e+00 9.096283e-31 -1.920282e-16
    outer loop
      vertex   1.250000e+01 6.301000e+00 6.649900e+01
      vertex   1.250000e+01 3.301000e+00 8.500000e+01
      vertex   1.250000e+01 6.301000e+00 8.500000e+01
    endloop
  endfacet
  facet normal -7.114761e-16 0.000000e+00 -1.000000e+00
    outer loop
      vertex   1.749344e+01 3.301000e+00 2.260000e+01
      vertex   1.250000e+01 3.301000e+00 2.260000e+01
      vertex   1.749344e+01 6.301000e+00 2.260000e+01
    endloop
  endfacet
  facet normal -7.114761e-16 0.000000e+00 -1.000000e+00
    outer loop
      vertex   1.749344e+01 6.301000e+00 2.260000e+01
      vertex   1.250000e+01 3.301000e+00 2.260000e+01
      vertex   1.250000e+01 6.301000e+00 2.260000e+01
    endloop
  endfacet
  facet normal 0.000000e+00 0.000000e+00 -1.000000e+00
    outer loop
      vertex   2.549344e+01 6.301000e+00 2.260000e+01
      vertex   3.050000e+01 6.301000e+00 2.260000e+01
      vertex   2.549344e+01 3.301000e+00 2.260000e+01
    endloop
  endfacet
  facet normal 0.000000e+00 0.000000e+00 -1.000000e+00
    outer loop
      vertex   2.549344e+01 3.301000e+00 2.260000e+01
      vertex   3.050000e+01 6.301000e+00 2.260000e+01
      vertex   3.050000e+01 3.301000e+00 2.260000e+01
    endloop
  endfacet
  facet normal 0.000000e+00 -4.736952e-15 1.000000e+00
    outer loop
      vertex   2.550000e+01 3.301000e+00 8.500000e+01
      vertex   3.050000e+01 3.301000e+00 8.500000e+01
      vertex   2.550000e+01 6.301000e+00 8.500000e+01
    endloop
  endfacet
  facet normal 0.000000e+00 -4.736952e-15 1.000000e+00
    outer loop
      vertex   2.550000e+01 6.301000e+00 8.500000e+01
      vertex   3.050000e+01 3.301000e+00 8.500000e+01
      vertex   3.050000e+01 6.301000e+00 8.500000e+01
    endloop
  endfacet
  facet normal 0.000000e+00 -4.736952e-15 1.000000e+00
    outer loop
      vertex   1.750000e+01 6.301000e+00 8.500000e+01
      vertex   1.250000e+01 6.301000e+00 8.500000e+01
      vertex   1.750000e+01 3.301000e+00 8.500000e+01
    endloop
  endfacet
  facet normal 0.000000e+00 -4.736952e-15 1.000000e+00
    outer loop
      vertex   1.750000e+01 3.301000e+00 8.500000e+01
      vertex   1.250000e+01 6.301000e+00 8.500000e+01
      vertex   1.250000e+01 3.301000e+00 8.500000e+01
    endloop
  endfacet
  facet normal 9.990482e-01 0.000000e+00 4.361939e-02
    outer loop
      vertex   1.750000e+01 6.301000e+00 7.100000e+01
      vertex   1.750000e+01 3.301000e+00 7.100000e+01
      vertex   1.751522e+01 6.301000e+00 7.065138e+01
    endloop
  endfacet
  facet normal 9.990482e-01 2.066229e-16 4.361939e-02
    outer loop
      vertex   1.751522e+01 6.301000e+00 7.065138e+01
      vertex   1.750000e+01 3.301000e+00 7.100000e+01
      vertex   1.751522e+01 3.301000e+00 7.065138e+01
    endloop
  endfacet
  facet normal 9.914449e-01 6.182963e-16 1.305262e-01
    outer loop
      vertex   1.751522e+01 6.301000e+00 7.065138e+01
      vertex   1.751522e+01 3.301000e+00 7.065138e+01
      vertex   1.756077e+01 6.301000e+00 7.030541e+01
    endloop
  endfacet
  facet normal 9.914449e-01 6.182963e-16 1.305262e-01
    outer loop
      vertex   1.756077e+01 6.301000e+00 7.030541e+01
      vertex   1.751522e+01 3.301000e+00 7.065138e+01
      vertex   1.756077e+01 3.301000e+00 7.030541e+01
    endloop
  endfacet
  facet normal 9.762960e-01 1.025264e-15 2.164396e-01
    outer loop
      vertex   1.756077e+01 6.301000e+00 7.030541e+01
      vertex   1.756077e+01 3.301000e+00 7.030541e+01
      vertex   1.763630e+01 6.301000e+00 6.996472e+01
    endloop
  endfacet
  facet normal 9.762960e-01 1.025264e-15 2.164396e-01
    outer loop
      vertex   1.763630e+01 6.301000e+00 6.996472e+01
      vertex   1.756077e+01 3.301000e+00 7.030541e+01
      vertex   1.763630e+01 3.301000e+00 6.996472e+01
    endloop
  endfacet
  facet normal 9.537170e-01 1.424429e-15 3.007058e-01
    outer loop
      vertex   1.763630e+01 6.301000e+00 6.996472e+01
      vertex   1.763630e+01 3.301000e+00 6.996472e+01
      vertex   1.774123e+01 6.301000e+00 6.963192e+01
    endloop
  endfacet
  facet normal 9.537170e-01 -1.129428e-15 3.007058e-01
    outer loop
      vertex   1.774123e+01 6.301000e+00 6.963192e+01
      vertex   1.763630e+01 3.301000e+00 6.996472e+01
      vertex   1.774123e+01 3.301000e+00 6.963192e+01
    endloop
  endfacet
  facet normal 9.238795e-01 -1.094093e-15 3.826834e-01
    outer loop
      vertex   1.774123e+01 6.301000e+00 6.963192e+01
      vertex   1.774123e+01 3.301000e+00 6.963192e+01
      vertex   1.787477e+01 6.301000e+00 6.930953e+01
    endloop
  endfacet
  facet normal 9.238795e-01 7.186597e-16 3.826834e-01
    outer loop
      vertex   1.787477e+01 6.301000e+00 6.930953e+01
      vertex   1.774123e+01 3.301000e+00 6.963192e+01
      vertex   1.787477e+01 3.301000e+00 6.930953e+01
    endloop
  endfacet
  facet normal 8.870108e-01 1.136849e-15 4.617486e-01
    outer loop
      vertex   1.787477e+01 6.301000e+00 6.930953e+01
      vertex   1.787477e+01 3.301000e+00 6.930953e+01
      vertex   1.803590e+01 6.301000e+00 6.900000e+01
    endloop
  endfacet
  facet normal 8.870108e-01 0.000000e+00 4.617486e-01
    outer loop
      vertex   1.803590e+01 6.301000e+00 6.900000e+01
      vertex   1.787477e+01 3.301000e+00 6.930953e+01
      vertex   1.803590e+01 3.301000e+00 6.900000e+01
    endloop
  endfacet
  facet normal 8.433914e-01 0.000000e+00 5.372996e-01
    outer loop
      vertex   1.803590e+01 6.301000e+00 6.900000e+01
      vertex   1.803590e+01 3.301000e+00 6.900000e+01
      vertex   1.822339e+01 6.301000e+00 6.870570e+01
    endloop
  endfacet
  facet normal 8.433914e-01 0.000000e+00 5.372996e-01
    outer loop
      vertex   1.822339e+01 6.301000e+00 6.870570e+01
      vertex   1.803590e+01 3.301000e+00 6.900000e+01
      vertex   1.822339e+01 3.301000e+00 6.870570e+01
    endloop
  endfacet
  facet normal 7.933533e-01 0.000000e+00 6.087614e-01
    outer loop
      vertex   1.822339e+01 6.301000e+00 6.870570e+01
      vertex   1.822339e+01 3.301000e+00 6.870570e+01
      vertex   1.843582e+01 6.301000e+00 6.842885e+01
    endloop
  endfacet
  facet normal 7.933533e-01 0.000000e+00 6.087614e-01
    outer loop
      vertex   1.843582e+01 6.301000e+00 6.842885e+01
      vertex   1.822339e+01 3.301000e+00 6.870570e+01
      vertex   1.843582e+01 3.301000e+00 6.842885e+01
    endloop
  endfacet
  facet normal 7.372773e-01 0.000000e+00 6.755902e-01
    outer loop
      vertex   1.843582e+01 6.301000e+00 6.842885e+01
      vertex   1.843582e+01 3.301000e+00 6.842885e+01
      vertex   1.867157e+01 6.301000e+00 6.817157e+01
    endloop
  endfacet
  facet normal 7.372773e-01 0.000000e+00 6.755902e-01
    outer loop
      vertex   1.867157e+01 6.301000e+00 6.817157e+01
      vertex   1.843582e+01 3.301000e+00 6.842885e+01
      vertex   1.867157e+01 3.301000e+00 6.817157e+01
    endloop
  endfacet
  facet normal 6.755902e-01 0.000000e+00 7.372773e-01
    outer loop
      vertex   1.867157e+01 6.301000e+00 6.817157e+01
      vertex   1.867157e+01 3.301000e+00 6.817157e+01
      vertex   1.892885e+01 6.301000e+00 6.793582e+01
    endloop
  endfacet
  facet normal 6.755902e-01 -1.600119e-15 7.372773e-01
    outer loop
      vertex   1.892885e+01 6.301000e+00 6.793582e+01
      vertex   1.867157e+01 3.301000e+00 6.817157e+01
      vertex   1.892885e+01 3.301000e+00 6.793582e+01
    endloop
  endfacet
  facet normal 6.087614e-01 -1.441837e-15 7.933533e-01
    outer loop
      vertex   1.892885e+01 6.301000e+00 6.793582e+01
      vertex   1.892885e+01 3.301000e+00 6.793582e+01
      vertex   1.920569e+01 6.301000e+00 6.772339e+01
    endloop
  endfacet
  facet normal 6.087614e-01 -7.209184e-16 7.933533e-01
    outer loop
      vertex   1.920569e+01 6.301000e+00 6.772339e+01
      vertex   1.892885e+01 3.301000e+00 6.793582e+01
      vertex   1.920569e+01 3.301000e+00 6.772339e+01
    endloop
  endfacet
  facet normal 5.372996e-01 -6.362906e-16 8.433914e-01
    outer loop
      vertex   1.920569e+01 6.301000e+00 6.772339e+01
      vertex   1.920569e+01 3.301000e+00 6.772339e+01
      vertex   1.950000e+01 6.301000e+00 6.753590e+01
    endloop
  endfacet
  facet normal 5.372996e-01 -1.272581e-15 8.433914e-01
    outer loop
      vertex   1.950000e+01 6.301000e+00 6.753590e+01
      vertex   1.920569e+01 3.301000e+00 6.772339e+01
      vertex   1.950000e+01 3.301000e+00 6.753590e+01
    endloop
  endfacet
  facet normal 4.617486e-01 -1.093640e-15 8.870108e-01
    outer loop
      vertex   1.950000e+01 6.301000e+00 6.753590e+01
      vertex   1.950000e+01 3.301000e+00 6.753590e+01
      vertex   1.980953e+01 6.301000e+00 6.737477e+01
    endloop
  endfacet
  facet normal 4.617486e-01 -1.093640e-15 8.870108e-01
    outer loop
      vertex   1.980953e+01 6.301000e+00 6.737477e+01
      vertex   1.950000e+01 3.301000e+00 6.753590e+01
      vertex   1.980953e+01 3.301000e+00 6.737477e+01
    endloop
  endfacet
  facet normal 3.826834e-01 -9.063764e-16 9.238795e-01
    outer loop
      vertex   1.980953e+01 6.301000e+00 6.737477e+01
      vertex   1.980953e+01 3.301000e+00 6.737477e+01
      vertex   2.013192e+01 6.301000e+00 6.724123e+01
    endloop
  endfacet
  facet normal 3.826834e-01 -4.531882e-16 9.238795e-01
    outer loop
      vertex   2.013192e+01 6.301000e+00 6.724123e+01
      vertex   1.980953e+01 3.301000e+00 6.737477e+01
      vertex   2.013192e+01 3.301000e+00 6.724123e+01
    endloop
  endfacet
  facet normal 3.007058e-01 -3.561072e-16 9.537170e-01
    outer loop
      vertex   2.013192e+01 6.301000e+00 6.724123e+01
      vertex   2.013192e+01 3.301000e+00 6.724123e+01
      vertex   2.046472e+01 6.301000e+00 6.713630e+01
    endloop
  endfacet
  facet normal 3.007058e-01 -7.122144e-16 9.537170e-01
    outer loop
      vertex   2.046472e+01 6.301000e+00 6.713630e+01
      vertex   2.013192e+01 3.301000e+00 6.724123e+01
      vertex   2.046472e+01 3.301000e+00 6.713630e+01
    endloop
  endfacet
  facet normal 2.164396e-01 -5.126320e-16 9.762960e-01
    outer loop
      vertex   2.046472e+01 6.301000e+00 6.713630e+01
      vertex   2.046472e+01 3.301000e+00 6.713630e+01
      vertex   2.080541e+01 6.301000e+00 6.706077e+01
    endloop
  endfacet
  facet normal 2.164396e-01 -7.689480e-16 9.762960e-01
    outer loop
      vertex   2.080541e+01 6.301000e+00 6.706077e+01
      vertex   2.046472e+01 3.301000e+00 6.713630e+01
      vertex   2.080541e+01 3.301000e+00 6.706077e+01
    endloop
  endfacet
  facet normal 1.305262e-01 -4.637222e-16 9.914449e-01
    outer loop
      vertex   2.080541e+01 6.301000e+00 6.706077e+01
      vertex   2.080541e+01 3.301000e+00 6.706077e+01
      vertex   2.115138e+01 6.301000e+00 6.701522e+01
    endloop
  endfacet
  facet normal 1.305262e-01 -1.545741e-16 9.914449e-01
    outer loop
      vertex   2.115138e+01 6.301000e+00 6.701522e+01
      vertex   2.080541e+01 3.301000e+00 6.706077e+01
      vertex   2.115138e+01 3.301000e+00 6.701522e+01
    endloop
  endfacet
  facet normal 4.361939e-02 -5.165573e-17 9.990482e-01
    outer loop
      vertex   2.115138e+01 6.301000e+00 6.701522e+01
      vertex   2.115138e+01 3.301000e+00 6.701522e+01
      vertex   2.150000e+01 6.301000e+00 6.700000e+01
    endloop
  endfacet
  facet normal 4.361939e-02 -5.165573e-17 9.990482e-01
    outer loop
      vertex   2.150000e+01 6.301000e+00 6.700000e+01
      vertex   2.115138e+01 3.301000e+00 6.701522e+01
      vertex   2.150000e+01 3.301000e+00 6.700000e+01
    endloop
  endfacet
  facet normal -4.361939e-02 5.165573e-17 9.990482e-01
    outer loop
      vertex   2.150000e+01 6.301000e+00 6.700000e+01
      vertex   2.150000e+01 3.301000e+00 6.700000e+01
      vertex   2.184862e+01 6.301000e+00 6.701522e+01
    endloop
  endfacet
  facet normal -4.361939e-02 5.165573e-17 9.990482e-01
    outer loop
      vertex   2.184862e+01 6.301000e+00 6.701522e+01
      vertex   2.150000e+01 3.301000e+00 6.700000e+01
      vertex   2.184862e+01 3.301000e+00 6.701522e+01
    endloop
  endfacet
  facet normal -1.305262e-01 1.545741e-16 9.914449e-01
    outer loop
      vertex   2.184862e+01 6.301000e+00 6.701522e+01
      vertex   2.184862e+01 3.301000e+00 6.701522e+01
      vertex   2.219459e+01 6.301000e+00 6.706077e+01
    endloop
  endfacet
  facet normal -1.305262e-01 1.545741e-16 9.914449e-01
    outer loop
      vertex   2.219459e+01 6.301000e+00 6.706077e+01
      vertex   2.184862e+01 3.301000e+00 6.701522e+01
      vertex   2.219459e+01 3.301000e+00 6.706077e+01
    endloop
  endfacet
  facet normal -2.164396e-01 2.563160e-16 9.762960e-01
    outer loop
      vertex   2.219459e+01 6.301000e+00 6.706077e+01
      vertex   2.219459e+01 3.301000e+00 6.706077e+01
      vertex   2.253528e+01 6.301000e+00 6.713630e+01
    endloop
  endfacet
  facet normal -2.164396e-01 5.126320e-16 9.762960e-01
    outer loop
      vertex   2.253528e+01 6.301000e+00 6.713630e+01
      vertex   2.219459e+01 3.301000e+00 6.706077e+01
      vertex   2.253528e+01 3.301000e+00 6.713630e+01
    endloop
  endfacet
  facet normal -3.007058e-01 7.122144e-16 9.537170e-01
    outer loop
      vertex   2.253528e+01 6.301000e+00 6.713630e+01
      vertex   2.253528e+01 3.301000e+00 6.713630e+01
      vertex   2.286808e+01 6.301000e+00 6.724123e+01
    endloop
  endfacet
  facet normal -3.007058e-01 7.122144e-16 9.537170e-01
    outer loop
      vertex   2.286808e+01 6.301000e+00 6.724123e+01
      vertex   2.253528e+01 3.301000e+00 6.713630e+01
      vertex   2.286808e+01 3.301000e+00 6.724123e+01
    endloop
  endfacet
  facet normal -3.826834e-01 9.063764e-16 9.238795e-01
    outer loop
      vertex   2.286808e+01 6.301000e+00 6.724123e+01
      vertex   2.286808e+01 3.301000e+00 6.724123e+01
      vertex   2.319047e+01 6.301000e+00 6.737477e+01
    endloop
  endfacet
  facet normal -3.826834e-01 -3.469996e-15 9.238795e-01
    outer loop
      vertex   2.319047e+01 6.301000e+00 6.737477e+01
      vertex   2.286808e+01 3.301000e+00 6.724123e+01
      vertex   2.319047e+01 3.301000e+00 6.737477e+01
    endloop
  endfacet
  facet normal -4.617486e-01 -3.108087e-15 8.870108e-01
    outer loop
      vertex   2.319047e+01 6.301000e+00 6.737477e+01
      vertex   2.319047e+01 3.301000e+00 6.737477e+01
      vertex   2.350000e+01 6.301000e+00 6.753590e+01
    endloop
  endfacet
  facet normal -4.617486e-01 5.468202e-16 8.870108e-01
    outer loop
      vertex   2.350000e+01 6.301000e+00 6.753590e+01
      vertex   2.319047e+01 3.301000e+00 6.737477e+01
      vertex   2.350000e+01 3.301000e+00 6.753590e+01
    endloop
  endfacet
  facet normal -5.372996e-01 6.362906e-16 8.433914e-01
    outer loop
      vertex   2.350000e+01 6.301000e+00 6.753590e+01
      vertex   2.350000e+01 3.301000e+00 6.753590e+01
      vertex   2.379431e+01 6.301000e+00 6.772339e+01
    endloop
  endfacet
  facet normal -5.372996e-01 0.000000e+00 8.433914e-01
    outer loop
      vertex   2.379431e+01 6.301000e+00 6.772339e+01
      vertex   2.350000e+01 3.301000e+00 6.753590e+01
      vertex   2.379431e+01 3.301000e+00 6.772339e+01
    endloop
  endfacet
  facet normal -6.087614e-01 0.000000e+00 7.933533e-01
    outer loop
      vertex   2.379431e+01 6.301000e+00 6.772339e+01
      vertex   2.379431e+01 3.301000e+00 6.772339e+01
      vertex   2.407115e+01 6.301000e+00 6.793582e+01
    endloop
  endfacet
  facet normal -6.087614e-01 -3.037158e-15 7.933533e-01
    outer loop
      vertex   2.407115e+01 6.301000e+00 6.793582e+01
      vertex   2.379431e+01 3.301000e+00 6.772339e+01
      vertex   2.407115e+01 3.301000e+00 6.793582e+01
    endloop
  endfacet
  facet normal -6.755902e-01 -2.692388e-15 7.372773e-01
    outer loop
      vertex   2.407115e+01 6.301000e+00 6.793582e+01
      vertex   2.407115e+01 3.301000e+00 6.793582e+01
      vertex   2.432843e+01 6.301000e+00 6.817157e+01
    endloop
  endfacet
  facet normal -6.755902e-01 -2.692388e-15 7.372773e-01
    outer loop
      vertex   2.432843e+01 6.301000e+00 6.817157e+01
      vertex   2.407115e+01 3.301000e+00 6.793582e+01
      vertex   2.432843e+01 3.301000e+00 6.817157e+01
    endloop
  endfacet
  facet normal -7.372773e-01 -2.327126e-15 6.755902e-01
    outer loop
      vertex   2.432843e+01 6.301000e+00 6.817157e+01
      vertex   2.432843e+01 3.301000e+00 6.817157e+01
      vertex   2.456418e+01 6.301000e+00 6.842885e+01
    endloop
  endfacet
  facet normal -7.372773e-01 0.000000e+00 6.755902e-01
    outer loop
      vertex   2.456418e+01 6.301000e+00 6.842885e+01
      vertex   2.432843e+01 3.301000e+00 6.817157e+01
      vertex   2.456418e+01 3.301000e+00 6.842885e+01
    endloop
  endfacet
  facet normal -7.933533e-01 0.000000e+00 6.087614e-01
    outer loop
      vertex   2.456418e+01 6.301000e+00 6.842885e+01
      vertex   2.456418e+01 3.301000e+00 6.842885e+01
      vertex   2.477661e+01 6.301000e+00 6.870570e+01
    endloop
  endfacet
  facet normal -7.933533e-01 -2.883673e-15 6.087614e-01
    outer loop
      vertex   2.477661e+01 6.301000e+00 6.870570e+01
      vertex   2.456418e+01 3.301000e+00 6.842885e+01
      vertex   2.477661e+01 3.301000e+00 6.870570e+01
    endloop
  endfacet
  facet normal -8.433914e-01 -2.545162e-15 5.372996e-01
    outer loop
      vertex   2.477661e+01 6.301000e+00 6.870570e+01
      vertex   2.477661e+01 3.301000e+00 6.870570e+01
      vertex   2.496410e+01 6.301000e+00 6.900000e+01
    endloop
  endfacet
  facet normal -8.433914e-01 9.987761e-16 5.372996e-01
    outer loop
      vertex   2.496410e+01 6.301000e+00 6.900000e+01
      vertex   2.477661e+01 3.301000e+00 6.870570e+01
      vertex   2.496410e+01 3.301000e+00 6.900000e+01
    endloop
  endfacet
  facet normal -8.870108e-01 1.050432e-15 4.617486e-01
    outer loop
      vertex   2.496410e+01 6.301000e+00 6.900000e+01
      vertex   2.496410e+01 3.301000e+00 6.900000e+01
      vertex   2.512523e+01 6.301000e+00 6.930953e+01
    endloop
  endfacet
  facet normal -8.870108e-01 2.100864e-15 4.617486e-01
    outer loop
      vertex   2.512523e+01 6.301000e+00 6.930953e+01
      vertex   2.496410e+01 3.301000e+00 6.900000e+01
      vertex   2.512523e+01 3.301000e+00 6.930953e+01
    endloop
  endfacet
  facet normal -9.238795e-01 2.188186e-15 3.826834e-01
    outer loop
      vertex   2.512523e+01 6.301000e+00 6.930953e+01
      vertex   2.512523e+01 3.301000e+00 6.930953e+01
      vertex   2.525877e+01 6.301000e+00 6.963192e+01
    endloop
  endfacet
  facet normal -9.238795e-01 -7.186597e-16 3.826834e-01
    outer loop
      vertex   2.525877e+01 6.301000e+00 6.963192e+01
      vertex   2.512523e+01 3.301000e+00 6.930953e+01
      vertex   2.525877e+01 3.301000e+00 6.963192e+01
    endloop
  endfacet
  facet normal -9.537170e-01 -2.950011e-16 3.007058e-01
    outer loop
      vertex   2.525877e+01 6.301000e+00 6.963192e+01
      vertex   2.525877e+01 3.301000e+00 6.963192e+01
      vertex   2.536370e+01 6.301000e+00 6.996472e+01
    endloop
  endfacet
  facet normal -9.537170e-01 -2.950011e-16 3.007058e-01
    outer loop
      vertex   2.536370e+01 6.301000e+00 6.996472e+01
      vertex   2.525877e+01 3.301000e+00 6.963192e+01
      vertex   2.536370e+01 3.301000e+00 6.996472e+01
    endloop
  endfacet
  facet normal -9.762960e-01 1.309028e-16 2.164396e-01
    outer loop
      vertex   2.536370e+01 6.301000e+00 6.996472e+01
      vertex   2.536370e+01 3.301000e+00 6.996472e+01
      vertex   2.543923e+01 6.301000e+00 7.030541e+01
    endloop
  endfacet
  facet normal -9.762960e-01 0.000000e+00 2.164396e-01
    outer loop
      vertex   2.543923e+01 6.301000e+00 7.030541e+01
      vertex   2.536370e+01 3.301000e+00 6.996472e+01
      vertex   2.543923e+01 3.301000e+00 7.030541e+01
    endloop
  endfacet
  facet normal -9.914449e-01 0.000000e+00 1.305262e-01
    outer loop
      vertex   2.543923e+01 6.301000e+00 7.030541e+01
      vertex   2.543923e+01 3.301000e+00 7.030541e+01
      vertex   2.548478e+01 6.301000e+00 7.065138e+01
    endloop
  endfacet
  facet normal -9.914449e-01 0.000000e+00 1.305262e-01
    outer loop
      vertex   2.548478e+01 6.301000e+00 7.065138e+01
      vertex   2.543923e+01 3.301000e+00 7.030541e+01
      vertex   2.548478e+01 3.301000e+00 7.065138e+01
    endloop
  endfacet
  facet normal -9.990482e-01 0.000000e+00 4.361939e-02
    outer loop
      vertex   2.548478e+01 6.301000e+00 7.065138e+01
      vertex   2.548478e+01 3.301000e+00 7.065138e+01
      vertex   2.550000e+01 6.301000e+00 7.100000e+01
    endloop
  endfacet
  facet normal -9.990482e-01 0.000000e+00 4.361939e-02
    outer loop
      vertex   2.550000e+01 6.301000e+00 7.100000e+01
      vertex   2.548478e+01 3.301000e+00 7.065138e+01
      vertex   2.550000e+01 3.301000e+00 7.100000e+01
    endloop
  endfacet
  facet normal 1.000000e+00 -1.202074e-30 2.537653e-16
    outer loop
      vertex   1.750000e+01 3.301000e+00 8.500000e+01
      vertex   1.750000e+01 3.301000e+00 7.100000e+01
      vertex   1.750000e+01 6.301000e+00 8.500000e+01
    endloop
  endfacet
  facet normal 1.000000e+00 0.000000e+00 2.537653e-16
    outer loop
      vertex   1.750000e+01 6.301000e+00 8.500000e+01
      vertex   1.750000e+01 3.301000e+00 7.100000e+01
      vertex   1.750000e+01 6.301000e+00 7.100000e+01
    endloop
  endfacet
  facet normal -1.000000e+00 0.000000e+00 0.000000e+00
    outer loop
      vertex   2.550000e+01 3.301000e+00 7.100000e+01
      vertex   2.550000e+01 3.301000e+00 8.500000e+01
      vertex   2.550000e+01 6.301000e+00 7.100000e+01
    endloop
  endfacet
  facet normal -1.000000e+00 0.000000e+00 0.000000e+00
    outer loop
      vertex   2.550000e+01 6.301000e+00 7.100000e+01
      vertex   2.550000e+01 3.301000e+00 8.500000e+01
      vertex   2.550000e+01 6.301000e+00 8.500000e+01
    endloop
  endfacet
  facet normal 0.000000e+00 -1.000000e+00 6.344132e-16
    outer loop
      vertex   2.550000e+01 3.301000e+00 8.500000e+01
      vertex   2.550000e+01 3.301000e+00 7.100000e+01
      vertex   3.050000e+01 3.301000e+00 8.500000e+01
    endloop
  endfacet
  facet normal 2.023763e-15 -1.000000e+00 -8.835941e-17
    outer loop
      vertex   3.050000e+01 3.301000e+00 8.500000e+01
      vertex   2.550000e+01 3.301000e+00 7.100000e+01
      vertex   2.548478e+01 3.301000e+00 7.065138e+01
    endloop
  endfacet
  facet normal 2.841090e-15 -1.000000e+00 -3.740366e-16
    outer loop
      vertex   3.050000e+01 3.301000e+00 8.500000e+01
      vertex   2.548478e+01 3.301000e+00 7.065138e+01
      vertex   2.543923e+01 3.301000e+00 7.030541e+01
    endloop
  endfacet
  facet normal 0.000000e+00 -1.000000e+00 0.000000e+00
    outer loop
      vertex   2.536370e+01 3.301000e+00 6.996472e+01
      vertex   2.543267e+01 3.301000e+00 3.729459e+01
      vertex   2.543923e+01 3.301000e+00 7.030541e+01
    endloop
  endfacet
  facet normal 0.000000e+00 -1.000000e+00 -0.000000e+00
    outer loop
      vertex   2.543923e+01 3.301000e+00 7.030541e+01
      vertex   2.543267e+01 3.301000e+00 3.729459e+01
      vertex   3.050000e+01 3.301000e+00 2.260000e+01
    endloop
  endfacet
  facet normal 1.341735e-15 -1.000000e+00 1.423363e-16
    outer loop
      vertex   2.543923e+01 3.301000e+00 7.030541e+01
      vertex   3.050000e+01 3.301000e+00 2.260000e+01
      vertex   3.050000e+01 3.301000e+00 8.500000e+01
    endloop
  endfacet
  facet normal 0.000000e+00 -1.000000e+00 0.000000e+00
    outer loop
      vertex   2.543267e+01 3.301000e+00 3.729459e+01
      vertex   2.536370e+01 3.301000e+00 6.996472e+01
      vertex   2.535714e+01 3.301000e+00 3.763528e+01
    endloop
  endfacet
  facet normal 0.000000e+00 -1.000000e+00 0.000000e+00
    outer loop
      vertex   2.535714e+01 3.301000e+00 3.763528e+01
      vertex   2.536370e+01 3.301000e+00 6.996472e+01
      vertex   2.525877e+01 3.301000e+00 6.963192e+01
    endloop
  endfacet
  facet normal 0.000000e+00 -1.000000e+00 0.000000e+00
    outer loop
      vertex   2.535714e+01 3.301000e+00 3.763528e+01
      vertex   2.525877e+01 3.301000e+00 6.963192e+01
      vertex   2.525221e+01 3.301000e+00 3.796808e+01
    endloop
  endfacet
  facet normal 0.000000e+00 -1.000000e+00 0.000000e+00
    outer loop
      vertex   2.525221e+01 3.301000e+00 3.796808e+01
      vertex   2.525877e+01 3.301000e+00 6.963192e+01
      vertex   2.512523e+01 3.301000e+00 6.930953e+01
    endloop
  endfacet
  facet normal 0.000000e+00 -1.000000e+00 0.000000e+00
    outer loop
      vertex   2.525221e+01 3.301000e+00 3.796808e+01
      vertex   2.512523e+01 3.301000e+00 6.930953e+01
      vertex   2.511867e+01 3.301000e+00 3.829047e+01
    endloop
  endfacet
  facet normal 0.000000e+00 -1.000000e+00 0.000000e+00
    outer loop
      vertex   2.511867e+01 3.301000e+00 3.829047e+01
      vertex   2.512523e+01 3.301000e+00 6.930953e+01
      vertex   2.496410e+01 3.301000e+00 6.900000e+01
    endloop
  endfacet
  facet normal 0.000000e+00 -1.000000e+00 0.000000e+00
    outer loop
      vertex   2.511867e+01 3.301000e+00 3.829047e+01
      vertex   2.496410e+01 3.301000e+00 6.900000e+01
      vertex   2.495754e+01 3.301000e+00 3.860000e+01
    endloop
  endfacet
  facet normal 0.000000e+00 -1.000000e+00 0.000000e+00
    outer loop
      vertex   2.495754e+01 3.301000e+00 3.860000e+01
      vertex   2.496410e+01 3.301000e+00 6.900000e+01
      vertex   2.477661e+01 3.301000e+00 6.870570e+01
    endloop
  endfacet
  facet normal 0.000000e+00 -1.000000e+00 0.000000e+00
    outer loop
      vertex   2.495754e+01 3.301000e+00 3.860000e+01
      vertex   2.477661e+01 3.301000e+00 6.870570e+01
      vertex   2.477005e+01 3.301000e+00 3.889431e+01
    endloop
  endfacet
  facet normal 0.000000e+00 -1.000000e+00 0.000000e+00
    outer loop
      vertex   2.477005e+01 3.301000e+00 3.889431e+01
      vertex   2.477661e+01 3.301000e+00 6.870570e+01
      vertex   2.456418e+01 3.301000e+00 6.842885e+01
    endloop
  endfacet
  facet normal 0.000000e+00 -1.000000e+00 0.000000e+00
    outer loop
      vertex   2.477005e+01 3.301000e+00 3.889431e+01
      vertex   2.456418e+01 3.301000e+00 6.842885e+01
      vertex   2.455762e+01 3.301000e+00 3.917115e+01
    endloop
  endfacet
  facet normal 0.000000e+00 -1.000000e+00 0.000000e+00
    outer loop
      vertex   2.455762e+01 3.301000e+00 3.917115e+01
      vertex   2.456418e+01 3.301000e+00 6.842885e+01
      vertex   2.432843e+01 3.301000e+00 6.817157e+01
    endloop
  endfacet
  facet normal 0.000000e+00 -1.000000e+00 0.000000e+00
    outer loop
      vertex   2.455762e+01 3.301000e+00 3.917115e+01
      vertex   2.432843e+01 3.301000e+00 6.817157e+01
      vertex   2.432187e+01 3.301000e+00 3.942843e+01
    endloop
  endfacet
  facet normal 0.000000e+00 -1.000000e+00 0.000000e+00
    outer loop
      vertex   2.432187e+01 3.301000e+00 3.942843e+01
      vertex   2.432843e+01 3.301000e+00 6.817157e+01
      vertex   2.407115e+01 3.301000e+00 6.793582e+01
    endloop
  endfacet
  facet normal 0.000000e+00 -1.000000e+00 0.000000e+00
    outer loop
      vertex   2.432187e+01 3.301000e+00 3.942843e+01
      vertex   2.407115e+01 3.301000e+00 6.793582e+01
      vertex   2.406459e+01 3.301000e+00 3.966418e+01
    endloop
  endfacet
  facet normal 0.000000e+00 -1.000000e+00 0.000000e+00
    outer loop
      vertex   2.406459e+01 3.301000e+00 3.966418e+01
      vertex   2.407115e+01 3.301000e+00 6.793582e+01
      vertex   2.379431e+01 3.301000e+00 6.772339e+01
    endloop
  endfacet
  facet normal 0.000000e+00 -1.000000e+00 0.000000e+00
    outer loop
      vertex   2.406459e+01 3.301000e+00 3.966418e+01
      vertex   2.379431e+01 3.301000e+00 6.772339e+01
      vertex   2.378775e+01 3.301000e+00 3.987661e+01
    endloop
  endfacet
  facet normal 0.000000e+00 -1.000000e+00 0.000000e+00
    outer loop
      vertex   2.378775e+01 3.301000e+00 3.987661e+01
      vertex   2.379431e+01 3.301000e+00 6.772339e+01
      vertex   2.350000e+01 3.301000e+00 6.753590e+01
    endloop
  endfacet
  facet normal 0.000000e+00 -1.000000e+00 0.000000e+00
    outer loop
      vertex   2.378775e+01 3.301000e+00 3.987661e+01
      vertex   2.350000e+01 3.301000e+00 6.753590e+01
      vertex   2.349344e+01 3.301000e+00 4.006410e+01
    endloop
  endfacet
  facet normal 0.000000e+00 -1.000000e+00 0.000000e+00
    outer loop
      vertex   2.349344e+01 3.301000e+00 4.006410e+01
      vertex   2.350000e+01 3.301000e+00 6.753590e+01
      vertex   2.319047e+01 3.301000e+00 6.737477e+01
    endloop
  endfacet
  facet normal 0.000000e+00 -1.000000e+00 0.000000e+00
    outer loop
      vertex   2.349344e+01 3.301000e+00 4.006410e+01
      vertex   2.319047e+01 3.301000e+00 6.737477e+01
      vertex   2.318391e+01 3.301000e+00 4.022523e+01
    endloop
  endfacet
  facet normal 0.000000e+00 -1.000000e+00 0.000000e+00
    outer loop
      vertex   2.318391e+01 3.301000e+00 4.022523e+01
      vertex   2.319047e+01 3.301000e+00 6.737477e+01
      vertex   2.286808e+01 3.301000e+00 6.724123e+01
    endloop
  endfacet
  facet normal 0.000000e+00 -1.000000e+00 0.000000e+00
    outer loop
      vertex   2.318391e+01 3.301000e+00 4.022523e+01
      vertex   2.286808e+01 3.301000e+00 6.724123e+01
      vertex   2.286152e+01 3.301000e+00 4.035877e+01
    endloop
  endfacet
  facet normal 0.000000e+00 -1.000000e+00 0.000000e+00
    outer loop
      vertex   2.286152e+01 3.301000e+00 4.035877e+01
      vertex   2.286808e+01 3.301000e+00 6.724123e+01
      vertex   2.253528e+01 3.301000e+00 6.713630e+01
    endloop
  endfacet
  facet normal 0.000000e+00 -1.000000e+00 0.000000e+00
    outer loop
      vertex   2.286152e+01 3.301000e+00 4.035877e+01
      vertex   2.253528e+01 3.301000e+00 6.713630e+01
      vertex   2.252872e+01 3.301000e+00 4.046370e+01
    endloop
  endfacet
  facet normal 0.000000e+00 -1.000000e+00 0.000000e+00
    outer loop
      vertex   2.252872e+01 3.301000e+00 4.046370e+01
      vertex   2.253528e+01 3.301000e+00 6.713630e+01
      vertex   2.219459e+01 3.301000e+00 6.706077e+01
    endloop
  endfacet
  facet normal 0.000000e+00 -1.000000e+00 0.000000e+00
    outer loop
      vertex   2.252872e+01 3.301000e+00 4.046370e+01
      vertex   2.219459e+01 3.301000e+00 6.706077e+01
      vertex   2.218803e+01 3.301000e+00 4.053923e+01
    endloop
  endfacet
  facet normal 0.000000e+00 -1.000000e+00 0.000000e+00
    outer loop
      vertex   2.218803e+01 3.301000e+00 4.053923e+01
      vertex   2.219459e+01 3.301000e+00 6.706077e+01
      vertex   2.184862e+01 3.301000e+00 6.701522e+01
    endloop
  endfacet
  facet normal 0.000000e+00 -1.000000e+00 0.000000e+00
    outer loop
      vertex   2.218803e+01 3.301000e+00 4.053923e+01
      vertex   2.184862e+01 3.301000e+00 6.701522e+01
      vertex   2.184206e+01 3.301000e+00 4.058478e+01
    endloop
  endfacet
  facet normal 0.000000e+00 -1.000000e+00 0.000000e+00
    outer loop
      vertex   2.184206e+01 3.301000e+00 4.058478e+01
      vertex   2.184862e+01 3.301000e+00 6.701522e+01
      vertex   2.150000e+01 3.301000e+00 6.700000e+01
    endloop
  endfacet
  facet normal 0.000000e+00 -1.000000e+00 0.000000e+00
    outer loop
      vertex   2.184206e+01 3.301000e+00 4.058478e+01
      vertex   2.150000e+01 3.301000e+00 6.700000e+01
      vertex   2.149344e+01 3.301000e+00 4.060000e+01
    endloop
  endfacet
  facet normal 0.000000e+00 -1.000000e+00 0.000000e+00
    outer loop
      vertex   2.149344e+01 3.301000e+00 4.060000e+01
      vertex   2.150000e+01 3.301000e+00 6.700000e+01
      vertex   2.115138e+01 3.301000e+00 6.701522e+01
    endloop
  endfacet
  facet normal -0.000000e+00 -1.000000e+00 0.000000e+00
    outer loop
      vertex   2.149344e+01 3.301000e+00 4.060000e+01
      vertex   2.115138e+01 3.301000e+00 6.701522e+01
      vertex   2.114482e+01 3.301000e+00 4.058478e+01
    endloop
  endfacet
  facet normal 0.000000e+00 -1.000000e+00 0.000000e+00
    outer loop
      vertex   2.114482e+01 3.301000e+00 4.058478e+01
      vertex   2.115138e+01 3.301000e+00 6.701522e+01
      vertex   2.080541e+01 3.301000e+00 6.706077e+01
    endloop
  endfacet
  facet normal -0.000000e+00 -1.000000e+00 0.000000e+00
    outer loop
      vertex   2.114482e+01 3.301000e+00 4.058478e+01
      vertex   2.080541e+01 3.301000e+00 6.706077e+01
      vertex   2.079885e+01 3.301000e+00 4.053923e+01
    endloop
  endfacet
  facet normal 0.000000e+00 -1.000000e+00 0.000000e+00
    outer loop
      vertex   2.079885e+01 3.301000e+00 4.053923e+01
      vertex   2.080541e+01 3.301000e+00 6.706077e+01
      vertex   2.046472e+01 3.301000e+00 6.713630e+01
    endloop
  endfacet
  facet normal -0.000000e+00 -1.000000e+00 0.000000e+00
    outer loop
      vertex   2.079885e+01 3.301000e+00 4.053923e+01
      vertex   2.046472e+01 3.301000e+00 6.713630e+01
      vertex   2.045816e+01 3.301000e+00 4.046370e+01
    endloop
  endfacet
  facet normal 0.000000e+00 -1.000000e+00 0.000000e+00
    outer loop
      vertex   2.045816e+01 3.301000e+00 4.046370e+01
      vertex   2.046472e+01 3.301000e+00 6.713630e+01
      vertex   2.013192e+01 3.301000e+00 6.724123e+01
    endloop
  endfacet
  facet normal -0.000000e+00 -1.000000e+00 0.000000e+00
    outer loop
      vertex   2.045816e+01 3.301000e+00 4.046370e+01
      vertex   2.013192e+01 3.301000e+00 6.724123e+01
      vertex   2.012536e+01 3.301000e+00 4.035877e+01
    endloop
  endfacet
  facet normal 0.000000e+00 -1.000000e+00 0.000000e+00
    outer loop
      vertex   2.012536e+01 3.301000e+00 4.035877e+01
      vertex   2.013192e+01 3.301000e+00 6.724123e+01
      vertex   1.980953e+01 3.301000e+00 6.737477e+01
    endloop
  endfacet
  facet normal -0.000000e+00 -1.000000e+00 0.000000e+00
    outer loop
      vertex   2.012536e+01 3.301000e+00 4.035877e+01
      vertex   1.980953e+01 3.301000e+00 6.737477e+01
      vertex   1.980297e+01 3.301000e+00 4.022523e+01
    endloop
  endfacet
  facet normal 0.000000e+00 -1.000000e+00 0.000000e+00
    outer loop
      vertex   1.980297e+01 3.301000e+00 4.022523e+01
      vertex   1.980953e+01 3.301000e+00 6.737477e+01
      vertex   1.950000e+01 3.301000e+00 6.753590e+01
    endloop
  endfacet
  facet normal -0.000000e+00 -1.000000e+00 0.000000e+00
    outer loop
      vertex   1.980297e+01 3.301000e+00 4.022523e+01
      vertex   1.950000e+01 3.301000e+00 6.753590e+01
      vertex   1.949344e+01 3.301000e+00 4.006410e+01
    endloop
  endfacet
  facet normal 0.000000e+00 -1.000000e+00 0.000000e+00
    outer loop
      vertex   1.949344e+01 3.301000e+00 4.006410e+01
      vertex   1.950000e+01 3.301000e+00 6.753590e+01
      vertex   1.920569e+01 3.301000e+00 6.772339e+01
    endloop
  endfacet
  facet normal -0.000000e+00 -1.000000e+00 0.000000e+00
    outer loop
      vertex   1.949344e+01 3.301000e+00 4.006410e+01
      vertex   1.920569e+01 3.301000e+00 6.772339e+01
      vertex   1.919914e+01 3.301000e+00 3.987661e+01
    endloop
  endfacet
  facet normal 0.000000e+00 -1.000000e+00 0.000000e+00
    outer loop
      vertex   1.919914e+01 3.301000e+00 3.987661e+01
      vertex   1.920569e+01 3.301000e+00 6.772339e+01
      vertex   1.892885e+01 3.301000e+00 6.793582e+01
    endloop
  endfacet
  facet normal -0.000000e+00 -1.000000e+00 0.000000e+00
    outer loop
      vertex   1.919914e+01 3.301000e+00 3.987661e+01
      vertex   1.892885e+01 3.301000e+00 6.793582e+01
      vertex   1.892229e+01 3.301000e+00 3.966418e+01
    endloop
  endfacet
  facet normal 0.000000e+00 -1.000000e+00 0.000000e+00
    outer loop
      vertex   1.892229e+01 3.301000e+00 3.966418e+01
      vertex   1.892885e+01 3.301000e+00 6.793582e+01
      vertex   1.867157e+01 3.301000e+00 6.817157e+01
    endloop
  endfacet
  facet normal -0.000000e+00 -1.000000e+00 0.000000e+00
    outer loop
      vertex   1.892229e+01 3.301000e+00 3.966418e+01
      vertex   1.867157e+01 3.301000e+00 6.817157e+01
      vertex   1.866501e+01 3.301000e+00 3.942843e+01
    endloop
  endfacet
  facet normal 0.000000e+00 -1.000000e+00 0.000000e+00
    outer loop
      vertex   1.866501e+01 3.301000e+00 3.942843e+01
      vertex   1.867157e+01 3.301000e+00 6.817157e+01
      vertex   1.843582e+01 3.301000e+00 6.842885e+01
    endloop
  endfacet
  facet normal -0.000000e+00 -1.000000e+00 0.000000e+00
    outer loop
      vertex   1.866501e+01 3.301000e+00 3.942843e+01
      vertex   1.843582e+01 3.301000e+00 6.842885e+01
      vertex   1.842926e+01 3.301000e+00 3.917115e+01
    endloop
  endfacet
  facet normal 0.000000e+00 -1.000000e+00 0.000000e+00
    outer loop
      vertex   1.842926e+01 3.301000e+00 3.917115e+01
      vertex   1.843582e+01 3.301000e+00 6.842885e+01
      vertex   1.822339e+01 3.301000e+00 6.870570e+01
    endloop
  endfacet
  facet normal -0.000000e+00 -1.000000e+00 0.000000e+00
    outer loop
      vertex   1.842926e+01 3.301000e+00 3.917115e+01
      vertex   1.822339e+01 3.301000e+00 6.870570e+01
      vertex   1.821683e+01 3.301000e+00 3.889431e+01
    endloop
  endfacet
  facet normal 0.000000e+00 -1.000000e+00 0.000000e+00
    outer loop
      vertex   1.821683e+01 3.301000e+00 3.889431e+01
      vertex   1.822339e+01 3.301000e+00 6.870570e+01
      vertex   1.803590e+01 3.301000e+00 6.900000e+01
    endloop
  endfacet
  facet normal -0.000000e+00 -1.000000e+00 0.000000e+00
    outer loop
      vertex   1.821683e+01 3.301000e+00 3.889431e+01
      vertex   1.803590e+01 3.301000e+00 6.900000e+01
      vertex   1.802934e+01 3.301000e+00 3.860000e+01
    endloop
  endfacet
  facet normal 0.000000e+00 -1.000000e+00 0.000000e+00
    outer loop
      vertex   1.802934e+01 3.301000e+00 3.860000e+01
      vertex   1.803590e+01 3.301000e+00 6.900000e+01
      vertex   1.787477e+01 3.301000e+00 6.930953e+01
    endloop
  endfacet
  facet normal -0.000000e+00 -1.000000e+00 0.000000e+00
    outer loop
      vertex   1.802934e+01 3.301000e+00 3.860000e+01
      vertex   1.787477e+01 3.301000e+00 6.930953e+01
      vertex   1.786821e+01 3.301000e+00 3.829047e+01
    endloop
  endfacet
  facet normal 0.000000e+00 -1.000000e+00 0.000000e+00
    outer loop
      vertex   1.786821e+01 3.301000e+00 3.829047e+01
      vertex   1.787477e+01 3.301000e+00 6.930953e+01
      vertex   1.774123e+01 3.301000e+00 6.963192e+01
    endloop
  endfacet
  facet normal -0.000000e+00 -1.000000e+00 0.000000e+00
    outer loop
      vertex   1.786821e+01 3.301000e+00 3.829047e+01
      vertex   1.774123e+01 3.301000e+00 6.963192e+01
      vertex   1.773467e+01 3.301000e+00 3.796808e+01
    endloop
  endfacet
  facet normal 0.000000e+00 -1.000000e+00 0.000000e+00
    outer loop
      vertex   1.773467e+01 3.301000e+00 3.796808e+01
      vertex   1.774123e+01 3.301000e+00 6.963192e+01
      vertex   1.763630e+01 3.301000e+00 6.996472e+01
    endloop
  endfacet
  facet normal -0.000000e+00 -1.000000e+00 0.000000e+00
    outer loop
      vertex   1.773467e+01 3.301000e+00 3.796808e+01
      vertex   1.763630e+01 3.301000e+00 6.996472e+01
      vertex   1.762974e+01 3.301000e+00 3.763528e+01
    endloop
  endfacet
  facet normal 0.000000e+00 -1.000000e+00 0.000000e+00
    outer loop
      vertex   1.762974e+01 3.301000e+00 3.763528e+01
      vertex   1.763630e+01 3.301000e+00 6.996472e+01
      vertex   1.756077e+01 3.301000e+00 7.030541e+01
    endloop
  endfacet
  facet normal -0.000000e+00 -1.000000e+00 0.000000e+00
    outer loop
      vertex   1.762974e+01 3.301000e+00 3.763528e+01
      vertex   1.756077e+01 3.301000e+00 7.030541e+01
      vertex   1.755421e+01 3.301000e+00 3.729459e+01
    endloop
  endfacet
  facet normal -1.754015e-15 -1.000000e+00 3.485253e-19
    outer loop
      vertex   1.755421e+01 3.301000e+00 3.729459e+01
      vertex   1.756077e+01 3.301000e+00 7.030541e+01
      vertex   1.250000e+01 3.301000e+00 8.500000e+01
    endloop
  endfacet
  facet normal -4.138280e-16 -1.000000e+00 1.423363e-16
    outer loop
      vertex   1.755421e+01 3.301000e+00 3.729459e+01
      vertex   1.250000e+01 3.301000e+00 8.500000e+01
      vertex   1.250000e+01 3.301000e+00 2.260000e+01
    endloop
  endfacet
  facet normal -2.841090e-15 -1.000000e+00 -3.740366e-16
    outer loop
      vertex   1.756077e+01 3.301000e+00 7.030541e+01
      vertex   1.751522e+01 3.301000e+00 7.065138e+01
      vertex   1.250000e+01 3.301000e+00 8.500000e+01
    endloop
  endfacet
  facet normal -2.023763e-15 -1.000000e+00 -8.835941e-17
    outer loop
      vertex   1.250000e+01 3.301000e+00 8.500000e+01
      vertex   1.751522e+01 3.301000e+00 7.065138e+01
      vertex   1.750000e+01 3.301000e+00 7.100000e+01
    endloop
  endfacet
  facet normal 0.000000e+00 -1.000000e+00 6.344132e-16
    outer loop
      vertex   1.250000e+01 3.301000e+00 8.500000e+01
      vertex   1.750000e+01 3.301000e+00 7.100000e+01
      vertex   1.750000e+01 3.301000e+00 8.500000e+01
    endloop
  endfacet
  facet normal 0.000000e+00 -1.000000e+00 0.000000e+00
    outer loop
      vertex   1.749344e+01 3.301000e+00 2.260000e+01
      vertex   1.749344e+01 3.301000e+00 3.660000e+01
      vertex   1.250000e+01 3.301000e+00 2.260000e+01
    endloop
  endfacet
  facet normal 0.000000e+00 -1.000000e+00 0.000000e+00
    outer loop
      vertex   1.250000e+01 3.301000e+00 2.260000e+01
      vertex   1.749344e+01 3.301000e+00 3.660000e+01
      vertex   1.750866e+01 3.301000e+00 3.694862e+01
    endloop
  endfacet
  facet normal 0.000000e+00 -1.000000e+00 0.000000e+00
    outer loop
      vertex   1.250000e+01 3.301000e+00 2.260000e+01
      vertex   1.750866e+01 3.301000e+00 3.694862e+01
      vertex   1.755421e+01 3.301000e+00 3.729459e+01
    endloop
  endfacet
  facet normal 0.000000e+00 -1.000000e+00 0.000000e+00
    outer loop
      vertex   2.543267e+01 3.301000e+00 3.729459e+01
      vertex   2.547822e+01 3.301000e+00 3.694862e+01
      vertex   3.050000e+01 3.301000e+00 2.260000e+01
    endloop
  endfacet
  facet normal 0.000000e+00 -1.000000e+00 0.000000e+00
    outer loop
      vertex   3.050000e+01 3.301000e+00 2.260000e+01
      vertex   2.547822e+01 3.301000e+00 3.694862e+01
      vertex   2.549344e+01 3.301000e+00 3.660000e+01
    endloop
  endfacet
  facet normal 0.000000e+00 -1.000000e+00 0.000000e+00
    outer loop
      vertex   3.050000e+01 3.301000e+00 2.260000e+01
      vertex   2.549344e+01 3.301000e+00 3.660000e+01
      vertex   2.549344e+01 3.301000e+00 2.260000e+01
    endloop
  endfacet
  facet normal -9.990482e-01 -0.000000e+00 -4.361939e-02
    outer loop
      vertex   2.549344e+01 6.301000e+00 3.660000e+01
      vertex   2.549344e+01 3.301000e+00 3.660000e+01
      vertex   2.547822e+01 6.301000e+00 3.694862e+01
    endloop
  endfacet
  facet normal -9.990482e-01 1.033115e-16 -4.361939e-02
    outer loop
      vertex   2.547822e+01 6.301000e+00 3.694862e+01
      vertex   2.549344e+01 3.301000e+00 3.660000e+01
      vertex   2.547822e+01 3.301000e+00 3.694862e+01
    endloop
  endfacet
  facet normal -9.914449e-01 3.091481e-16 -1.305262e-01
    outer loop
      vertex   2.547822e+01 6.301000e+00 3.694862e+01
      vertex   2.547822e+01 3.301000e+00 3.694862e+01
      vertex   2.543267e+01 6.301000e+00 3.729459e+01
    endloop
  endfacet
  facet normal -9.914449e-01 -0.000000e+00 -1.305262e-01
    outer loop
      vertex   2.543267e+01 6.301000e+00 3.729459e+01
      vertex   2.547822e+01 3.301000e+00 3.694862e+01
      vertex   2.543267e+01 3.301000e+00 3.729459e+01
    endloop
  endfacet
  facet normal -9.762960e-01 -0.000000e+00 -2.164396e-01
    outer loop
      vertex   2.543267e+01 6.301000e+00 3.729459e+01
      vertex   2.543267e+01 3.301000e+00 3.729459e+01
      vertex   2.535714e+01 6.301000e+00 3.763528e+01
    endloop
  endfacet
  facet normal -9.762960e-01 -0.000000e+00 -2.164396e-01
    outer loop
      vertex   2.535714e+01 6.301000e+00 3.763528e+01
      vertex   2.543267e+01 3.301000e+00 3.729459e+01
      vertex   2.535714e+01 3.301000e+00 3.763528e+01
    endloop
  endfacet
  facet normal -9.537170e-01 -0.000000e+00 -3.007058e-01
    outer loop
      vertex   2.535714e+01 6.301000e+00 3.763528e+01
      vertex   2.535714e+01 3.301000e+00 3.763528e+01
      vertex   2.525221e+01 6.301000e+00 3.796808e+01
    endloop
  endfacet
  facet normal -9.537170e-01 -0.000000e+00 -3.007058e-01
    outer loop
      vertex   2.525221e+01 6.301000e+00 3.796808e+01
      vertex   2.535714e+01 3.301000e+00 3.763528e+01
      vertex   2.525221e+01 3.301000e+00 3.796808e+01
    endloop
  endfacet
  facet normal -9.238795e-01 -0.000000e+00 -3.826834e-01
    outer loop
      vertex   2.525221e+01 6.301000e+00 3.796808e+01
      vertex   2.525221e+01 3.301000e+00 3.796808e+01
      vertex   2.511867e+01 6.301000e+00 3.829047e+01
    endloop
  endfacet
  facet normal -9.238795e-01 -0.000000e+00 -3.826834e-01
    outer loop
      vertex   2.511867e+01 6.301000e+00 3.829047e+01
      vertex   2.525221e+01 3.301000e+00 3.796808e+01
      vertex   2.511867e+01 3.301000e+00 3.829047e+01
    endloop
  endfacet
  facet normal -8.870108e-01 -0.000000e+00 -4.617486e-01
    outer loop
      vertex   2.511867e+01 6.301000e+00 3.829047e+01
      vertex   2.511867e+01 3.301000e+00 3.829047e+01
      vertex   2.495754e+01 6.301000e+00 3.860000e+01
    endloop
  endfacet
  facet normal -8.870108e-01 -0.000000e+00 -4.617486e-01
    outer loop
      vertex   2.495754e+01 6.301000e+00 3.860000e+01
      vertex   2.511867e+01 3.301000e+00 3.829047e+01
      vertex   2.495754e+01 3.301000e+00 3.860000e+01
    endloop
  endfacet
  facet normal -8.433914e-01 -0.000000e+00 -5.372996e-01
    outer loop
      vertex   2.495754e+01 6.301000e+00 3.860000e+01
      vertex   2.495754e+01 3.301000e+00 3.860000e+01
      vertex   2.477005e+01 6.301000e+00 3.889431e+01
    endloop
  endfacet
  facet normal -8.433914e-01 -7.249711e-16 -5.372996e-01
    outer loop
      vertex   2.477005e+01 6.301000e+00 3.889431e+01
      vertex   2.495754e+01 3.301000e+00 3.860000e+01
      vertex   2.477005e+01 3.301000e+00 3.889431e+01
    endloop
  endfacet
  facet normal -7.933533e-01 -4.372015e-16 -6.087614e-01
    outer loop
      vertex   2.477005e+01 6.301000e+00 3.889431e+01
      vertex   2.477005e+01 3.301000e+00 3.889431e+01
      vertex   2.455762e+01 6.301000e+00 3.917115e+01
    endloop
  endfacet
  facet normal -7.933533e-01 -0.000000e+00 -6.087614e-01
    outer loop
      vertex   2.455762e+01 6.301000e+00 3.917115e+01
      vertex   2.477005e+01 3.301000e+00 3.889431e+01
      vertex   2.455762e+01 3.301000e+00 3.917115e+01
    endloop
  endfacet
  facet normal -7.372773e-01 -0.000000e+00 -6.755902e-01
    outer loop
      vertex   2.455762e+01 6.301000e+00 3.917115e+01
      vertex   2.455762e+01 3.301000e+00 3.917115e+01
      vertex   2.432187e+01 6.301000e+00 3.942843e+01
    endloop
  endfacet
  facet normal -7.372773e-01 -8.731118e-16 -6.755902e-01
    outer loop
      vertex   2.432187e+01 6.301000e+00 3.942843e+01
      vertex   2.455762e+01 3.301000e+00 3.917115e+01
      vertex   2.432187e+01 3.301000e+00 3.942843e+01
    endloop
  endfacet
  facet normal -6.755902e-01 -8.000595e-16 -7.372773e-01
    outer loop
      vertex   2.432187e+01 6.301000e+00 3.942843e+01
      vertex   2.432187e+01 3.301000e+00 3.942843e+01
      vertex   2.406459e+01 6.301000e+00 3.966418e+01
    endloop
  endfacet
  facet normal -6.755902e-01 -0.000000e+00 -7.372773e-01
    outer loop
      vertex   2.406459e+01 6.301000e+00 3.966418e+01
      vertex   2.432187e+01 3.301000e+00 3.942843e+01
      vertex   2.406459e+01 3.301000e+00 3.966418e+01
    endloop
  endfacet
  facet normal -6.087614e-01 -0.000000e+00 -7.933533e-01
    outer loop
      vertex   2.406459e+01 6.301000e+00 3.966418e+01
      vertex   2.406459e+01 3.301000e+00 3.966418e+01
      vertex   2.378775e+01 6.301000e+00 3.987661e+01
    endloop
  endfacet
  facet normal -6.087614e-01 -0.000000e+00 -7.933533e-01
    outer loop
      vertex   2.378775e+01 6.301000e+00 3.987661e+01
      vertex   2.406459e+01 3.301000e+00 3.966418e+01
      vertex   2.378775e+01 3.301000e+00 3.987661e+01
    endloop
  endfacet
  facet normal -5.372996e-01 -0.000000e+00 -8.433914e-01
    outer loop
      vertex   2.378775e+01 6.301000e+00 3.987661e+01
      vertex   2.378775e+01 3.301000e+00 3.987661e+01
      vertex   2.349344e+01 6.301000e+00 4.006410e+01
    endloop
  endfacet
  facet normal -5.372996e-01 -0.000000e+00 -8.433914e-01
    outer loop
      vertex   2.349344e+01 6.301000e+00 4.006410e+01
      vertex   2.378775e+01 3.301000e+00 3.987661e+01
      vertex   2.349344e+01 3.301000e+00 4.006410e+01
    endloop
  endfacet
  facet normal -4.617486e-01 -0.000000e+00 -8.870108e-01
    outer loop
      vertex   2.349344e+01 6.301000e+00 4.006410e+01
      vertex   2.349344e+01 3.301000e+00 4.006410e+01
      vertex   2.318391e+01 6.301000e+00 4.022523e+01
    endloop
  endfacet
  facet normal -4.617486e-01 -5.468202e-16 -8.870108e-01
    outer loop
      vertex   2.318391e+01 6.301000e+00 4.022523e+01
      vertex   2.349344e+01 3.301000e+00 4.006410e+01
      vertex   2.318391e+01 3.301000e+00 4.022523e+01
    endloop
  endfacet
  facet normal -3.826834e-01 -4.531882e-16 -9.238795e-01
    outer loop
      vertex   2.318391e+01 6.301000e+00 4.022523e+01
      vertex   2.318391e+01 3.301000e+00 4.022523e+01
      vertex   2.286152e+01 6.301000e+00 4.035877e+01
    endloop
  endfacet
  facet normal -3.826834e-01 -4.531882e-16 -9.238795e-01
    outer loop
      vertex   2.286152e+01 6.301000e+00 4.035877e+01
      vertex   2.318391e+01 3.301000e+00 4.022523e+01
      vertex   2.286152e+01 3.301000e+00 4.035877e+01
    endloop
  endfacet
  facet normal -3.007058e-01 -3.561072e-16 -9.537170e-01
    outer loop
      vertex   2.286152e+01 6.301000e+00 4.035877e+01
      vertex   2.286152e+01 3.301000e+00 4.035877e+01
      vertex   2.252872e+01 6.301000e+00 4.046370e+01
    endloop
  endfacet
  facet normal -3.007058e-01 -7.122144e-16 -9.537170e-01
    outer loop
      vertex   2.252872e+01 6.301000e+00 4.046370e+01
      vertex   2.286152e+01 3.301000e+00 4.035877e+01
      vertex   2.252872e+01 3.301000e+00 4.046370e+01
    endloop
  endfacet
  facet normal -2.164396e-01 -5.126320e-16 -9.762960e-01
    outer loop
      vertex   2.252872e+01 6.301000e+00 4.046370e+01
      vertex   2.252872e+01 3.301000e+00 4.046370e+01
      vertex   2.218803e+01 6.301000e+00 4.053923e+01
    endloop
  endfacet
  facet normal -2.164396e-01 -0.000000e+00 -9.762960e-01
    outer loop
      vertex   2.218803e+01 6.301000e+00 4.053923e+01
      vertex   2.252872e+01 3.301000e+00 4.046370e+01
      vertex   2.218803e+01 3.301000e+00 4.053923e+01
    endloop
  endfacet
  facet normal -1.305262e-01 -0.000000e+00 -9.914449e-01
    outer loop
      vertex   2.218803e+01 6.301000e+00 4.053923e+01
      vertex   2.218803e+01 3.301000e+00 4.053923e+01
      vertex   2.184206e+01 6.301000e+00 4.058478e+01
    endloop
  endfacet
  facet normal -1.305262e-01 -0.000000e+00 -9.914449e-01
    outer loop
      vertex   2.184206e+01 6.301000e+00 4.058478e+01
      vertex   2.218803e+01 3.301000e+00 4.053923e+01
      vertex   2.184206e+01 3.301000e+00 4.058478e+01
    endloop
  endfacet
  facet normal -4.361939e-02 -0.000000e+00 -9.990482e-01
    outer loop
      vertex   2.184206e+01 6.301000e+00 4.058478e+01
      vertex   2.184206e+01 3.301000e+00 4.058478e+01
      vertex   2.149344e+01 6.301000e+00 4.060000e+01
    endloop
  endfacet
  facet normal -4.361939e-02 -5.165573e-17 -9.990482e-01
    outer loop
      vertex   2.149344e+01 6.301000e+00 4.060000e+01
      vertex   2.184206e+01 3.301000e+00 4.058478e+01
      vertex   2.149344e+01 3.301000e+00 4.060000e+01
    endloop
  endfacet
  facet normal 4.361939e-02 5.165573e-17 -9.990482e-01
    outer loop
      vertex   2.149344e+01 6.301000e+00 4.060000e+01
      vertex   2.149344e+01 3.301000e+00 4.060000e+01
      vertex   2.114482e+01 6.301000e+00 4.058478e+01
    endloop
  endfacet
  facet normal 4.361939e-02 0.000000e+00 -9.990482e-01
    outer loop
      vertex   2.114482e+01 6.301000e+00 4.058478e+01
      vertex   2.149344e+01 3.301000e+00 4.060000e+01
      vertex   2.114482e+01 3.301000e+00 4.058478e+01
    endloop
  endfacet
  facet normal 1.305262e-01 0.000000e+00 -9.914449e-01
    outer loop
      vertex   2.114482e+01 6.301000e+00 4.058478e+01
      vertex   2.114482e+01 3.301000e+00 4.058478e+01
      vertex   2.079885e+01 6.301000e+00 4.053923e+01
    endloop
  endfacet
  facet normal 1.305262e-01 0.000000e+00 -9.914449e-01
    outer loop
      vertex   2.079885e+01 6.301000e+00 4.053923e+01
      vertex   2.114482e+01 3.301000e+00 4.058478e+01
      vertex   2.079885e+01 3.301000e+00 4.053923e+01
    endloop
  endfacet
  facet normal 2.164396e-01 0.000000e+00 -9.762960e-01
    outer loop
      vertex   2.079885e+01 6.301000e+00 4.053923e+01
      vertex   2.079885e+01 3.301000e+00 4.053923e+01
      vertex   2.045816e+01 6.301000e+00 4.046370e+01
    endloop
  endfacet
  facet normal 2.164396e-01 0.000000e+00 -9.762960e-01
    outer loop
      vertex   2.045816e+01 6.301000e+00 4.046370e+01
      vertex   2.079885e+01 3.301000e+00 4.053923e+01
      vertex   2.045816e+01 3.301000e+00 4.046370e+01
    endloop
  endfacet
  facet normal 3.007058e-01 0.000000e+00 -9.537170e-01
    outer loop
      vertex   2.045816e+01 6.301000e+00 4.046370e+01
      vertex   2.045816e+01 3.301000e+00 4.046370e+01
      vertex   2.012536e+01 6.301000e+00 4.035877e+01
    endloop
  endfacet
  facet normal 3.007058e-01 0.000000e+00 -9.537170e-01
    outer loop
      vertex   2.012536e+01 6.301000e+00 4.035877e+01
      vertex   2.045816e+01 3.301000e+00 4.046370e+01
      vertex   2.012536e+01 3.301000e+00 4.035877e+01
    endloop
  endfacet
  facet normal 3.826834e-01 0.000000e+00 -9.238795e-01
    outer loop
      vertex   2.012536e+01 6.301000e+00 4.035877e+01
      vertex   2.012536e+01 3.301000e+00 4.035877e+01
      vertex   1.980297e+01 6.301000e+00 4.022523e+01
    endloop
  endfacet
  facet normal 3.826834e-01 -1.734998e-15 -9.238795e-01
    outer loop
      vertex   1.980297e+01 6.301000e+00 4.022523e+01
      vertex   2.012536e+01 3.301000e+00 4.035877e+01
      vertex   1.980297e+01 3.301000e+00 4.022523e+01
    endloop
  endfacet
  facet normal 4.617486e-01 -1.554043e-15 -8.870108e-01
    outer loop
      vertex   1.980297e+01 6.301000e+00 4.022523e+01
      vertex   1.980297e+01 3.301000e+00 4.022523e+01
      vertex   1.949344e+01 6.301000e+00 4.006410e+01
    endloop
  endfacet
  facet normal 4.617486e-01 5.468202e-16 -8.870108e-01
    outer loop
      vertex   1.949344e+01 6.301000e+00 4.006410e+01
      vertex   1.980297e+01 3.301000e+00 4.022523e+01
      vertex   1.949344e+01 3.301000e+00 4.006410e+01
    endloop
  endfacet
  facet normal 5.372996e-01 6.362906e-16 -8.433914e-01
    outer loop
      vertex   1.949344e+01 6.301000e+00 4.006410e+01
      vertex   1.949344e+01 3.301000e+00 4.006410e+01
      vertex   1.919914e+01 6.301000e+00 3.987661e+01
    endloop
  endfacet
  facet normal 5.372996e-01 6.362906e-16 -8.433914e-01
    outer loop
      vertex   1.919914e+01 6.301000e+00 3.987661e+01
      vertex   1.949344e+01 3.301000e+00 4.006410e+01
      vertex   1.919914e+01 3.301000e+00 3.987661e+01
    endloop
  endfacet
  facet normal 6.087614e-01 7.209184e-16 -7.933533e-01
    outer loop
      vertex   1.919914e+01 6.301000e+00 3.987661e+01
      vertex   1.919914e+01 3.301000e+00 3.987661e+01
      vertex   1.892229e+01 6.301000e+00 3.966418e+01
    endloop
  endfacet
  facet normal 6.087614e-01 7.209184e-16 -7.933533e-01
    outer loop
      vertex   1.892229e+01 6.301000e+00 3.966418e+01
      vertex   1.919914e+01 3.301000e+00 3.987661e+01
      vertex   1.892229e+01 3.301000e+00 3.966418e+01
    endloop
  endfacet
  facet normal 6.755902e-01 8.000595e-16 -7.372773e-01
    outer loop
      vertex   1.892229e+01 6.301000e+00 3.966418e+01
      vertex   1.892229e+01 3.301000e+00 3.966418e+01
      vertex   1.866501e+01 6.301000e+00 3.942843e+01
    endloop
  endfacet
  facet normal 6.755902e-01 -9.461640e-16 -7.372773e-01
    outer loop
      vertex   1.866501e+01 6.301000e+00 3.942843e+01
      vertex   1.892229e+01 3.301000e+00 3.966418e+01
      vertex   1.866501e+01 3.301000e+00 3.942843e+01
    endloop
  endfacet
  facet normal 7.372773e-01 -7.270073e-16 -6.755902e-01
    outer loop
      vertex   1.866501e+01 6.301000e+00 3.942843e+01
      vertex   1.866501e+01 3.301000e+00 3.942843e+01
      vertex   1.842926e+01 6.301000e+00 3.917115e+01
    endloop
  endfacet
  facet normal 7.372773e-01 0.000000e+00 -6.755902e-01
    outer loop
      vertex   1.842926e+01 6.301000e+00 3.917115e+01
      vertex   1.866501e+01 3.301000e+00 3.942843e+01
      vertex   1.842926e+01 3.301000e+00 3.917115e+01
    endloop
  endfacet
  facet normal 7.933533e-01 0.000000e+00 -6.087614e-01
    outer loop
      vertex   1.842926e+01 6.301000e+00 3.917115e+01
      vertex   1.842926e+01 3.301000e+00 3.917115e+01
      vertex   1.821683e+01 6.301000e+00 3.889431e+01
    endloop
  endfacet
  facet normal 7.933533e-01 9.395191e-16 -6.087614e-01
    outer loop
      vertex   1.821683e+01 6.301000e+00 3.889431e+01
      vertex   1.842926e+01 3.301000e+00 3.917115e+01
      vertex   1.821683e+01 3.301000e+00 3.889431e+01
    endloop
  endfacet
  facet normal 8.433914e-01 9.987761e-16 -5.372996e-01
    outer loop
      vertex   1.821683e+01 6.301000e+00 3.889431e+01
      vertex   1.821683e+01 3.301000e+00 3.889431e+01
      vertex   1.802934e+01 6.301000e+00 3.860000e+01
    endloop
  endfacet
  facet normal 8.433914e-01 -2.738050e-16 -5.372996e-01
    outer loop
      vertex   1.802934e+01 6.301000e+00 3.860000e+01
      vertex   1.821683e+01 3.301000e+00 3.889431e+01
      vertex   1.802934e+01 3.301000e+00 3.860000e+01
    endloop
  endfacet
  facet normal 8.870108e-01 -4.320857e-17 -4.617486e-01
    outer loop
      vertex   1.802934e+01 6.301000e+00 3.860000e+01
      vertex   1.802934e+01 3.301000e+00 3.860000e+01
      vertex   1.786821e+01 6.301000e+00 3.829047e+01
    endloop
  endfacet
  facet normal 8.870108e-01 -1.093640e-15 -4.617486e-01
    outer loop
      vertex   1.786821e+01 6.301000e+00 3.829047e+01
      vertex   1.802934e+01 3.301000e+00 3.860000e+01
      vertex   1.786821e+01 3.301000e+00 3.829047e+01
    endloop
  endfacet
  facet normal 9.238795e-01 -9.063764e-16 -3.826834e-01
    outer loop
      vertex   1.786821e+01 6.301000e+00 3.829047e+01
      vertex   1.786821e+01 3.301000e+00 3.829047e+01
      vertex   1.773467e+01 6.301000e+00 3.796808e+01
    endloop
  endfacet
  facet normal 9.238795e-01 -9.063764e-16 -3.826834e-01
    outer loop
      vertex   1.773467e+01 6.301000e+00 3.796808e+01
      vertex   1.786821e+01 3.301000e+00 3.829047e+01
      vertex   1.773467e+01 3.301000e+00 3.796808e+01
    endloop
  endfacet
  facet normal 9.537170e-01 -7.122144e-16 -3.007058e-01
    outer loop
      vertex   1.773467e+01 6.301000e+00 3.796808e+01
      vertex   1.773467e+01 3.301000e+00 3.796808e+01
      vertex   1.762974e+01 6.301000e+00 3.763528e+01
    endloop
  endfacet
  facet normal 9.537170e-01 -7.122144e-16 -3.007058e-01
    outer loop
      vertex   1.762974e+01 6.301000e+00 3.763528e+01
      vertex   1.773467e+01 3.301000e+00 3.796808e+01
      vertex   1.762974e+01 3.301000e+00 3.763528e+01
    endloop
  endfacet
  facet normal 9.762960e-01 -5.126320e-16 -2.164396e-01
    outer loop
      vertex   1.762974e+01 6.301000e+00 3.763528e+01
      vertex   1.762974e+01 3.301000e+00 3.763528e+01
      vertex   1.755421e+01 6.301000e+00 3.729459e+01
    endloop
  endfacet
  facet normal 9.762960e-01 0.000000e+00 -2.164396e-01
    outer loop
      vertex   1.755421e+01 6.301000e+00 3.729459e+01
      vertex   1.762974e+01 3.301000e+00 3.763528e+01
      vertex   1.755421e+01 3.301000e+00 3.729459e+01
    endloop
  endfacet
  facet normal 9.914449e-01 0.000000e+00 -1.305262e-01
    outer loop
      vertex   1.755421e+01 6.301000e+00 3.729459e+01
      vertex   1.755421e+01 3.301000e+00 3.729459e+01
      vertex   1.750866e+01 6.301000e+00 3.694862e+01
    endloop
  endfacet
  facet normal 9.914449e-01 -3.091481e-16 -1.305262e-01
    outer loop
      vertex   1.750866e+01 6.301000e+00 3.694862e+01
      vertex   1.755421e+01 3.301000e+00 3.729459e+01
      vertex   1.750866e+01 3.301000e+00 3.694862e+01
    endloop
  endfacet
  facet normal 9.990482e-01 -1.033115e-16 -4.361939e-02
    outer loop
      vertex   1.750866e+01 6.301000e+00 3.694862e+01
      vertex   1.750866e+01 3.301000e+00 3.694862e+01
      vertex   1.749344e+01 6.301000e+00 3.660000e+01
    endloop
  endfacet
  facet normal 9.990482e-01 0.000000e+00 -4.361939e-02
    outer loop
      vertex   1.749344e+01 6.301000e+00 3.660000e+01
      vertex   1.750866e+01 3.301000e+00 3.694862e+01
      vertex   1.749344e+01 3.301000e+00 3.660000e+01
    endloop
  endfacet
  facet normal -1.000000e+00 0.000000e+00 -5.075305e-16
    outer loop
      vertex   2.549344e+01 3.301000e+00 2.260000e+01
      vertex   2.549344e+01 3.301000e+00 3.660000e+01
      vertex   2.549344e+01 6.301000e+00 2.260000e+01
    endloop
  endfacet
  facet normal -1.000000e+00 0.000000e+00 -5.075305e-16
    outer loop
      vertex   2.549344e+01 6.301000e+00 2.260000e+01
      vertex   2.549344e+01 3.301000e+00 3.660000e+01
      vertex   2.549344e+01 6.301000e+00 3.660000e+01
    endloop
  endfacet
  facet normal 1.000000e+00 -0.000000e+00 0.000000e+00
    outer loop
      vertex   1.749344e+01 3.301000e+00 3.660000e+01
      vertex   1.749344e+01 3.301000e+00 2.260000e+01
      vertex   1.749344e+01 6.301000e+00 3.660000e+01
    endloop
  endfacet
  facet normal 1.000000e+00 0.000000e+00 0.000000e+00
    outer loop
      vertex   1.749344e+01 6.301000e+00 3.660000e+01
      vertex   1.749344e+01 3.301000e+00 2.260000e+01
      vertex   1.749344e+01 6.301000e+00 2.260000e+01
    endloop
  endfacet
  facet normal -0.000000e+00 1.000000e+00 6.344132e-16
    outer loop
      vertex   2.550000e+01 6.301000e+00 8.500000e+01
      vertex   3.050000e+01 6.301000e+00 8.500000e+01
      vertex   2.550000e+01 6.301000e+00 7.100000e+01
    endloop
  endfacet
  facet normal 1.776357e-15 1.000000e+00 0.000000e+00
    outer loop
      vertex   2.550000e+01 6.301000e+00 7.100000e+01
      vertex   3.050000e+01 6.301000e+00 8.500000e+01
      vertex   3.050000e+01 6.301000e+00 6.649900e+01
    endloop
  endfacet
  facet normal 1.709180e-15 1.000000e+00 -7.462441e-17
    outer loop
      vertex   2.550000e+01 6.301000e+00 7.100000e+01
      vertex   3.050000e+01 6.301000e+00 6.649900e+01
      vertex   2.548478e+01 6.301000e+00 7.065138e+01
    endloop
  endfacet
  facet normal 1.596900e-15 1.000000e+00 -2.102358e-16
    outer loop
      vertex   2.548478e+01 6.301000e+00 7.065138e+01
      vertex   3.050000e+01 6.301000e+00 6.649900e+01
      vertex   2.543923e+01 6.301000e+00 7.030541e+01
    endloop
  endfacet
  facet normal 1.504207e-15 1.000000e+00 -3.334746e-16
    outer loop
      vertex   2.543923e+01 6.301000e+00 7.030541e+01
      vertex   3.050000e+01 6.301000e+00 6.649900e+01
      vertex   2.536370e+01 6.301000e+00 6.996472e+01
    endloop
  endfacet
  facet normal 1.425868e-15 1.000000e+00 -4.495746e-16
    outer loop
      vertex   2.536370e+01 6.301000e+00 6.996472e+01
      vertex   3.050000e+01 6.301000e+00 6.649900e+01
      vertex   2.525877e+01 6.301000e+00 6.963192e+01
    endloop
  endfacet
  facet normal 1.358294e-15 1.000000e+00 -5.626237e-16
    outer loop
      vertex   2.525877e+01 6.301000e+00 6.963192e+01
      vertex   3.050000e+01 6.301000e+00 6.649900e+01
      vertex   2.512523e+01 6.301000e+00 6.930953e+01
    endloop
  endfacet
  facet normal 1.298917e-15 1.000000e+00 -6.761735e-16
    outer loop
      vertex   2.512523e+01 6.301000e+00 6.930953e+01
      vertex   3.050000e+01 6.301000e+00 6.649900e+01
      vertex   2.496410e+01 6.301000e+00 6.900000e+01
    endloop
  endfacet
  facet normal 1.245830e-15 1.000000e+00 -7.936812e-16
    outer loop
      vertex   2.496410e+01 6.301000e+00 6.900000e+01
      vertex   3.050000e+01 6.301000e+00 6.649900e+01
      vertex   2.477661e+01 6.301000e+00 6.870570e+01
    endloop
  endfacet
  facet normal 1.197547e-15 1.000000e+00 -9.189101e-16
    outer loop
      vertex   2.477661e+01 6.301000e+00 6.870570e+01
      vertex   3.050000e+01 6.301000e+00 6.649900e+01
      vertex   2.456418e+01 6.301000e+00 6.842885e+01
    endloop
  endfacet
  facet normal 1.152849e-15 1.000000e+00 -1.056392e-15
    outer loop
      vertex   2.456418e+01 6.301000e+00 6.842885e+01
      vertex   3.050000e+01 6.301000e+00 6.649900e+01
      vertex   2.432843e+01 6.301000e+00 6.817157e+01
    endloop
  endfacet
  facet normal 1.110658e-15 1.000000e+00 -1.212071e-15
    outer loop
      vertex   2.432843e+01 6.301000e+00 6.817157e+01
      vertex   3.050000e+01 6.301000e+00 6.649900e+01
      vertex   2.407115e+01 6.301000e+00 6.793582e+01
    endloop
  endfacet
  facet normal 1.069920e-15 1.000000e+00 -1.394347e-15
    outer loop
      vertex   2.407115e+01 6.301000e+00 6.793582e+01
      vertex   3.050000e+01 6.301000e+00 6.649900e+01
      vertex   2.379431e+01 6.301000e+00 6.772339e+01
    endloop
  endfacet
  facet normal 1.029461e-15 1.000000e+00 -1.615930e-15
    outer loop
      vertex   2.379431e+01 6.301000e+00 6.772339e+01
      vertex   3.050000e+01 6.301000e+00 6.649900e+01
      vertex   2.350000e+01 6.301000e+00 6.753590e+01
    endloop
  endfacet
  facet normal 9.877579e-16 1.000000e+00 -1.897465e-15
    outer loop
      vertex   2.350000e+01 6.301000e+00 6.753590e+01
      vertex   3.050000e+01 6.301000e+00 6.649900e+01
      vertex   2.319047e+01 6.301000e+00 6.737477e+01
    endloop
  endfacet
  facet normal 9.424823e-16 1.000000e+00 -2.275354e-15
    outer loop
      vertex   2.319047e+01 6.301000e+00 6.737477e+01
      vertex   3.050000e+01 6.301000e+00 6.649900e+01
      vertex   2.286808e+01 6.301000e+00 6.724123e+01
    endloop
  endfacet
  facet normal 8.894262e-16 1.000000e+00 -2.820899e-15
    outer loop
      vertex   2.286808e+01 6.301000e+00 6.724123e+01
      vertex   3.050000e+01 6.301000e+00 6.649900e+01
      vertex   2.253528e+01 6.301000e+00 6.713630e+01
    endloop
  endfacet
  facet normal 8.193993e-16 1.000000e+00 -3.696072e-15
    outer loop
      vertex   2.253528e+01 6.301000e+00 6.713630e+01
      vertex   3.050000e+01 6.301000e+00 6.649900e+01
      vertex   2.219459e+01 6.301000e+00 6.706077e+01
    endloop
  endfacet
  facet normal 7.064472e-16 1.000000e+00 -5.365999e-15
    outer loop
      vertex   2.219459e+01 6.301000e+00 6.706077e+01
      vertex   3.050000e+01 6.301000e+00 6.649900e+01
      vertex   2.184862e+01 6.301000e+00 6.701522e+01
    endloop
  endfacet
  facet normal 4.337912e-16 1.000000e+00 -9.935452e-15
    outer loop
      vertex   2.184862e+01 6.301000e+00 6.701522e+01
      vertex   3.050000e+01 6.301000e+00 6.649900e+01
      vertex   2.150000e+01 6.301000e+00 6.700000e+01
    endloop
  endfacet
  facet normal 0.000000e+00 1.000000e+00 -1.772811e-14
    outer loop
      vertex   2.150000e+01 6.301000e+00 6.700000e+01
      vertex   3.050000e+01 6.301000e+00 6.649900e+01
      vertex   1.250000e+01 6.301000e+00 6.649900e+01
    endloop
  endfacet
  facet normal -4.337912e-16 1.000000e+00 -9.935452e-15
    outer loop
      vertex   2.150000e+01 6.301000e+00 6.700000e+01
      vertex   1.250000e+01 6.301000e+00 6.649900e+01
      vertex   2.115138e+01 6.301000e+00 6.701522e+01
    endloop
  endfacet
  facet normal -7.064472e-16 1.000000e+00 -5.365999e-15
    outer loop
      vertex   2.115138e+01 6.301000e+00 6.701522e+01
      vertex   1.250000e+01 6.301000e+00 6.649900e+01
      vertex   2.080541e+01 6.301000e+00 6.706077e+01
    endloop
  endfacet
  facet normal -8.193993e-16 1.000000e+00 -3.696072e-15
    outer loop
      vertex   2.080541e+01 6.301000e+00 6.706077e+01
      vertex   1.250000e+01 6.301000e+00 6.649900e+01
      vertex   2.046472e+01 6.301000e+00 6.713630e+01
    endloop
  endfacet
  facet normal -8.894262e-16 1.000000e+00 -2.820899e-15
    outer loop
      vertex   2.046472e+01 6.301000e+00 6.713630e+01
      vertex   1.250000e+01 6.301000e+00 6.649900e+01
      vertex   2.013192e+01 6.301000e+00 6.724123e+01
    endloop
  endfacet
  facet normal -9.424823e-16 1.000000e+00 -2.275354e-15
    outer loop
      vertex   2.013192e+01 6.301000e+00 6.724123e+01
      vertex   1.250000e+01 6.301000e+00 6.649900e+01
      vertex   1.980953e+01 6.301000e+00 6.737477e+01
    endloop
  endfacet
  facet normal -9.877579e-16 1.000000e+00 -1.897465e-15
    outer loop
      vertex   1.980953e+01 6.301000e+00 6.737477e+01
      vertex   1.250000e+01 6.301000e+00 6.649900e+01
      vertex   1.950000e+01 6.301000e+00 6.753590e+01
    endloop
  endfacet
  facet normal -1.029461e-15 1.000000e+00 -1.615930e-15
    outer loop
      vertex   1.950000e+01 6.301000e+00 6.753590e+01
      vertex   1.250000e+01 6.301000e+00 6.649900e+01
      vertex   1.920569e+01 6.301000e+00 6.772339e+01
    endloop
  endfacet
  facet normal -1.069920e-15 1.000000e+00 -1.394347e-15
    outer loop
      vertex   1.920569e+01 6.301000e+00 6.772339e+01
      vertex   1.250000e+01 6.301000e+00 6.649900e+01
      vertex   1.892885e+01 6.301000e+00 6.793582e+01
    endloop
  endfacet
  facet normal -1.110658e-15 1.000000e+00 -1.212071e-15
    outer loop
      vertex   1.892885e+01 6.301000e+00 6.793582e+01
      vertex   1.250000e+01 6.301000e+00 6.649900e+01
      vertex   1.867157e+01 6.301000e+00 6.817157e+01
    endloop
  endfacet
  facet normal -1.152849e-15 1.000000e+00 -1.056392e-15
    outer loop
      vertex   1.867157e+01 6.301000e+00 6.817157e+01
      vertex   1.250000e+01 6.301000e+00 6.649900e+01
      vertex   1.843582e+01 6.301000e+00 6.842885e+01
    endloop
  endfacet
  facet normal -1.197547e-15 1.000000e+00 -9.189101e-16
    outer loop
      vertex   1.843582e+01 6.301000e+00 6.842885e+01
      vertex   1.250000e+01 6.301000e+00 6.649900e+01
      vertex   1.822339e+01 6.301000e+00 6.870570e+01
    endloop
  endfacet
  facet normal -1.245830e-15 1.000000e+00 -7.936812e-16
    outer loop
      vertex   1.822339e+01 6.301000e+00 6.870570e+01
      vertex   1.250000e+01 6.301000e+00 6.649900e+01
      vertex   1.803590e+01 6.301000e+00 6.900000e+01
    endloop
  endfacet
  facet normal -1.298917e-15 1.000000e+00 -6.761735e-16
    outer loop
      vertex   1.803590e+01 6.301000e+00 6.900000e+01
      vertex   1.250000e+01 6.301000e+00 6.649900e+01
      vertex   1.787477e+01 6.301000e+00 6.930953e+01
    endloop
  endfacet
  facet normal -1.358294e-15 1.000000e+00 -5.626237e-16
    outer loop
      vertex   1.787477e+01 6.301000e+00 6.930953e+01
      vertex   1.250000e+01 6.301000e+00 6.649900e+01
      vertex   1.774123e+01 6.301000e+00 6.963192e+01
    endloop
  endfacet
  facet normal -1.425868e-15 1.000000e+00 -4.495746e-16
    outer loop
      vertex   1.774123e+01 6.301000e+00 6.963192e+01
      vertex   1.250000e+01 6.301000e+00 6.649900e+01
      vertex   1.763630e+01 6.301000e+00 6.996472e+01
    endloop
  endfacet
  facet normal -1.504207e-15 1.000000e+00 -3.334746e-16
    outer loop
      vertex   1.763630e+01 6.301000e+00 6.996472e+01
      vertex   1.250000e+01 6.301000e+00 6.649900e+01
      vertex   1.756077e+01 6.301000e+00 7.030541e+01
    endloop
  endfacet
  facet normal -1.596900e-15 1.000000e+00 -2.102358e-16
    outer loop
      vertex   1.756077e+01 6.301000e+00 7.030541e+01
      vertex   1.250000e+01 6.301000e+00 6.649900e+01
      vertex   1.751522e+01 6.301000e+00 7.065138e+01
    endloop
  endfacet
  facet normal -1.709180e-15 1.000000e+00 -7.462441e-17
    outer loop
      vertex   1.751522e+01 6.301000e+00 7.065138e+01
      vertex   1.250000e+01 6.301000e+00 6.649900e+01
      vertex   1.750000e+01 6.301000e+00 7.100000e+01
    endloop
  endfacet
  facet normal -1.776357e-15 1.000000e+00 -3.411106e-31
    outer loop
      vertex   1.750000e+01 6.301000e+00 7.100000e+01
      vertex   1.250000e+01 6.301000e+00 6.649900e+01
      vertex   1.250000e+01 6.301000e+00 8.500000e+01
    endloop
  endfacet
  facet normal 0.000000e+00 1.000000e+00 6.344132e-16
    outer loop
      vertex   1.750000e+01 6.301000e+00 7.100000e+01
      vertex   1.250000e+01 6.301000e+00 8.500000e+01
      vertex   1.750000e+01 6.301000e+00 8.500000e+01
    endloop
  endfacet
  facet normal -9.027396e-31 1.000000e+00 -1.268826e-15
    outer loop
      vertex   1.749344e+01 6.301000e+00 2.260000e+01
      vertex   1.250000e+01 6.301000e+00 2.260000e+01
      vertex   1.749344e+01 6.301000e+00 3.660000e+01
    endloop
  endfacet
  facet normal -8.651632e-16 1.000000e+00 -9.602448e-16
    outer loop
      vertex   1.749344e+01 6.301000e+00 3.660000e+01
      vertex   1.250000e+01 6.301000e+00 2.260000e+01
      vertex   1.250000e+01 6.301000e+00 4.109900e+01
    endloop
  endfacet
  facet normal 0.000000e+00 1.000000e+00 -0.000000e+00
    outer loop
      vertex   1.749344e+01 6.301000e+00 3.660000e+01
      vertex   1.250000e+01 6.301000e+00 4.109900e+01
      vertex   1.750866e+01 6.301000e+00 3.694862e+01
    endloop
  endfacet
  facet normal 0.000000e+00 1.000000e+00 -0.000000e+00
    outer loop
      vertex   1.750866e+01 6.301000e+00 3.694862e+01
      vertex   1.250000e+01 6.301000e+00 4.109900e+01
      vertex   1.755421e+01 6.301000e+00 3.729459e+01
    endloop
  endfacet
  facet normal 0.000000e+00 1.000000e+00 -0.000000e+00
    outer loop
      vertex   1.755421e+01 6.301000e+00 3.729459e+01
      vertex   1.250000e+01 6.301000e+00 4.109900e+01
      vertex   1.762974e+01 6.301000e+00 3.763528e+01
    endloop
  endfacet
  facet normal 0.000000e+00 1.000000e+00 -0.000000e+00
    outer loop
      vertex   1.762974e+01 6.301000e+00 3.763528e+01
      vertex   1.250000e+01 6.301000e+00 4.109900e+01
      vertex   1.773467e+01 6.301000e+00 3.796808e+01
    endloop
  endfacet
  facet normal 0.000000e+00 1.000000e+00 -0.000000e+00
    outer loop
      vertex   1.773467e+01 6.301000e+00 3.796808e+01
      vertex   1.250000e+01 6.301000e+00 4.109900e+01
      vertex   1.786821e+01 6.301000e+00 3.829047e+01
    endloop
  endfacet
  facet normal 0.000000e+00 1.000000e+00 -0.000000e+00
    outer loop
      vertex   1.786821e+01 6.301000e+00 3.829047e+01
      vertex   1.250000e+01 6.301000e+00 4.109900e+01
      vertex   1.802934e+01 6.301000e+00 3.860000e+01
    endloop
  endfacet
  facet normal 0.000000e+00 1.000000e+00 -0.000000e+00
    outer loop
      vertex   1.802934e+01 6.301000e+00 3.860000e+01
      vertex   1.250000e+01 6.301000e+00 4.109900e+01
      vertex   1.821683e+01 6.301000e+00 3.889431e+01
    endloop
  endfacet
  facet normal 0.000000e+00 1.000000e+00 -0.000000e+00
    outer loop
      vertex   1.821683e+01 6.301000e+00 3.889431e+01
      vertex   1.250000e+01 6.301000e+00 4.109900e+01
      vertex   1.842926e+01 6.301000e+00 3.917115e+01
    endloop
  endfacet
  facet normal 0.000000e+00 1.000000e+00 -0.000000e+00
    outer loop
      vertex   1.842926e+01 6.301000e+00 3.917115e+01
      vertex   1.250000e+01 6.301000e+00 4.109900e+01
      vertex   1.866501e+01 6.301000e+00 3.942843e+01
    endloop
  endfacet
  facet normal 0.000000e+00 1.000000e+00 -0.000000e+00
    outer loop
      vertex   1.866501e+01 6.301000e+00 3.942843e+01
      vertex   1.250000e+01 6.301000e+00 4.109900e+01
      vertex   1.892229e+01 6.301000e+00 3.966418e+01
    endloop
  endfacet
  facet normal 0.000000e+00 1.000000e+00 -0.000000e+00
    outer loop
      vertex   1.892229e+01 6.301000e+00 3.966418e+01
      vertex   1.250000e+01 6.301000e+00 4.109900e+01
      vertex   1.919914e+01 6.301000e+00 3.987661e+01
    endloop
  endfacet
  facet normal 0.000000e+00 1.000000e+00 -0.000000e+00
    outer loop
      vertex   1.919914e+01 6.301000e+00 3.987661e+01
      vertex   1.250000e+01 6.301000e+00 4.109900e+01
      vertex   1.949344e+01 6.301000e+00 4.006410e+01
    endloop
  endfacet
  facet normal 0.000000e+00 1.000000e+00 -0.000000e+00
    outer loop
      vertex   1.949344e+01 6.301000e+00 4.006410e+01
      vertex   1.250000e+01 6.301000e+00 4.109900e+01
      vertex   1.980297e+01 6.301000e+00 4.022523e+01
    endloop
  endfacet
  facet normal 0.000000e+00 1.000000e+00 -0.000000e+00
    outer loop
      vertex   1.980297e+01 6.301000e+00 4.022523e+01
      vertex   1.250000e+01 6.301000e+00 4.109900e+01
      vertex   2.012536e+01 6.301000e+00 4.035877e+01
    endloop
  endfacet
  facet normal 0.000000e+00 1.000000e+00 -0.000000e+00
    outer loop
      vertex   2.012536e+01 6.301000e+00 4.035877e+01
      vertex   1.250000e+01 6.301000e+00 4.109900e+01
      vertex   2.045816e+01 6.301000e+00 4.046370e+01
    endloop
  endfacet
  facet normal 0.000000e+00 1.000000e+00 -0.000000e+00
    outer loop
      vertex   2.045816e+01 6.301000e+00 4.046370e+01
      vertex   1.250000e+01 6.301000e+00 4.109900e+01
      vertex   2.079885e+01 6.301000e+00 4.053923e+01
    endloop
  endfacet
  facet normal 0.000000e+00 1.000000e+00 -0.000000e+00
    outer loop
      vertex   2.079885e+01 6.301000e+00 4.053923e+01
      vertex   1.250000e+01 6.301000e+00 4.109900e+01
      vertex   2.114482e+01 6.301000e+00 4.058478e+01
    endloop
  endfacet
  facet normal 0.000000e+00 1.000000e+00 -0.000000e+00
    outer loop
      vertex   2.114482e+01 6.301000e+00 4.058478e+01
      vertex   1.250000e+01 6.301000e+00 4.109900e+01
      vertex   2.149344e+01 6.301000e+00 4.060000e+01
    endloop
  endfacet
  facet normal 0.000000e+00 1.000000e+00 -0.000000e+00
    outer loop
      vertex   2.149344e+01 6.301000e+00 4.060000e+01
      vertex   1.250000e+01 6.301000e+00 4.109900e+01
      vertex   3.050000e+01 6.301000e+00 4.109900e+01
    endloop
  endfacet
  facet normal -0.000000e+00 1.000000e+00 0.000000e+00
    outer loop
      vertex   2.149344e+01 6.301000e+00 4.060000e+01
      vertex   3.050000e+01 6.301000e+00 4.109900e+01
      vertex   2.184206e+01 6.301000e+00 4.058478e+01
    endloop
  endfacet
  facet normal -0.000000e+00 1.000000e+00 0.000000e+00
    outer loop
      vertex   2.184206e+01 6.301000e+00 4.058478e+01
      vertex   3.050000e+01 6.301000e+00 4.109900e+01
      vertex   2.218803e+01 6.301000e+00 4.053923e+01
    endloop
  endfacet
  facet normal -0.000000e+00 1.000000e+00 0.000000e+00
    outer loop
      vertex   2.218803e+01 6.301000e+00 4.053923e+01
      vertex   3.050000e+01 6.301000e+00 4.109900e+01
      vertex   2.252872e+01 6.301000e+00 4.046370e+01
    endloop
  endfacet
  facet normal -0.000000e+00 1.000000e+00 0.000000e+00
    outer loop
      vertex   2.252872e+01 6.301000e+00 4.046370e+01
      vertex   3.050000e+01 6.301000e+00 4.109900e+01
      vertex   2.286152e+01 6.301000e+00 4.035877e+01
    endloop
  endfacet
  facet normal -0.000000e+00 1.000000e+00 0.000000e+00
    outer loop
      vertex   2.286152e+01 6.301000e+00 4.035877e+01
      vertex   3.050000e+01 6.301000e+00 4.109900e+01
      vertex   2.318391e+01 6.301000e+00 4.022523e+01
    endloop
  endfacet
  facet normal -0.000000e+00 1.000000e+00 0.000000e+00
    outer loop
      vertex   2.318391e+01 6.301000e+00 4.022523e+01
      vertex   3.050000e+01 6.301000e+00 4.109900e+01
      vertex   2.349344e+01 6.301000e+00 4.006410e+01
    endloop
  endfacet
  facet normal -0.000000e+00 1.000000e+00 0.000000e+00
    outer loop
      vertex   2.349344e+01 6.301000e+00 4.006410e+01
      vertex   3.050000e+01 6.301000e+00 4.109900e+01
      vertex   2.378775e+01 6.301000e+00 3.987661e+01
    endloop
  endfacet
  facet normal -0.000000e+00 1.000000e+00 0.000000e+00
    outer loop
      vertex   2.378775e+01 6.301000e+00 3.987661e+01
      vertex   3.050000e+01 6.301000e+00 4.109900e+01
      vertex   2.406459e+01 6.301000e+00 3.966418e+01
    endloop
  endfacet
  facet normal -0.000000e+00 1.000000e+00 0.000000e+00
    outer loop
      vertex   2.406459e+01 6.301000e+00 3.966418e+01
      vertex   3.050000e+01 6.301000e+00 4.109900e+01
      vertex   2.432187e+01 6.301000e+00 3.942843e+01
    endloop
  endfacet
  facet normal -0.000000e+00 1.000000e+00 0.000000e+00
    outer loop
      vertex   2.432187e+01 6.301000e+00 3.942843e+01
      vertex   3.050000e+01 6.301000e+00 4.109900e+01
      vertex   2.455762e+01 6.301000e+00 3.917115e+01
    endloop
  endfacet
  facet normal -0.000000e+00 1.000000e+00 0.000000e+00
    outer loop
      vertex   2.455762e+01 6.301000e+00 3.917115e+01
      vertex   3.050000e+01 6.301000e+00 4.109900e+01
      vertex   2.477005e+01 6.301000e+00 3.889431e+01
    endloop
  endfacet
  facet normal -0.000000e+00 1.000000e+00 0.000000e+00
    outer loop
      vertex   2.477005e+01 6.301000e+00 3.889431e+01
      vertex   3.050000e+01 6.301000e+00 4.109900e+01
      vertex   2.495754e+01 6.301000e+00 3.860000e+01
    endloop
  endfacet
  facet normal -0.000000e+00 1.000000e+00 0.000000e+00
    outer loop
      vertex   2.495754e+01 6.301000e+00 3.860000e+01
      vertex   3.050000e+01 6.301000e+00 4.109900e+01
      vertex   2.511867e+01 6.301000e+00 3.829047e+01
    endloop
  endfacet
  facet normal -0.000000e+00 1.000000e+00 0.000000e+00
    outer loop
      vertex   2.511867e+01 6.301000e+00 3.829047e+01
      vertex   3.050000e+01 6.301000e+00 4.109900e+01
      vertex   2.525221e+01 6.301000e+00 3.796808e+01
    endloop
  endfacet
  facet normal -0.000000e+00 1.000000e+00 0.000000e+00
    outer loop
      vertex   2.525221e+01 6.301000e+00 3.796808e+01
      vertex   3.050000e+01 6.301000e+00 4.109900e+01
      vertex   2.535714e+01 6.301000e+00 3.763528e+01
    endloop
  endfacet
  facet normal -0.000000e+00 1.000000e+00 0.000000e+00
    outer loop
      vertex   2.535714e+01 6.301000e+00 3.763528e+01
      vertex   3.050000e+01 6.301000e+00 4.109900e+01
      vertex   2.543267e+01 6.301000e+00 3.729459e+01
    endloop
  endfacet
  facet normal -0.000000e+00 1.000000e+00 0.000000e+00
    outer loop
      vertex   2.543267e+01 6.301000e+00 3.729459e+01
      vertex   3.050000e+01 6.301000e+00 4.109900e+01
      vertex   2.547822e+01 6.301000e+00 3.694862e+01
    endloop
  endfacet
  facet normal -0.000000e+00 1.000000e+00 0.000000e+00
    outer loop
      vertex   2.547822e+01 6.301000e+00 3.694862e+01
      vertex   3.050000e+01 6.301000e+00 4.109900e+01
      vertex   2.549344e+01 6.301000e+00 3.660000e+01
    endloop
  endfacet
  facet normal 8.628963e-16 1.000000e+00 -9.602448e-16
    outer loop
      vertex   2.549344e+01 6.301000e+00 3.660000e+01
      vertex   3.050000e+01 6.301000e+00 4.109900e+01
      vertex   3.050000e+01 6.301000e+00 2.260000e+01
    endloop
  endfacet
  facet normal 0.000000e+00 1.000000e+00 -1.268826e-15
    outer loop
      vertex   2.549344e+01 6.301000e+00 3.660000e+01
      vertex   3.050000e+01 6.301000e+00 2.260000e+01
      vertex   2.549344e+01 6.301000e+00 2.260000e+01
    endloop
  endfacet
  facet normal -1.438702e-15 2.691450e-16 -1.000000e+00
    outer loop
      vertex   2.500000e+01 4.047700e+01 4.109900e+01
      vertex   3.050000e+01 4.347700e+01 4.109900e+01
      vertex   2.500000e+01 1.407700e+01 4.109900e+01
    endloop
  endfacet
  facet normal -1.021674e-15 1.911294e-16 -1.000000e+00
    outer loop
      vertex   2.500000e+01 1.407700e+01 4.109900e+01
      vertex   3.050000e+01 4.347700e+01 4.109900e+01
      vertex   3.050000e+01 6.301000e+00 4.109900e+01
    endloop
  endfacet
  facet normal 2.030122e-15 2.349678e-15 -1.000000e+00
    outer loop
      vertex   2.500000e+01 1.407700e+01 4.109900e+01
      vertex   3.050000e+01 6.301000e+00 4.109900e+01
      vertex   1.800000e+01 1.407700e+01 4.109900e+01
    endloop
  endfacet
  facet normal 0.000000e+00 -9.137638e-16 -1.000000e+00
    outer loop
      vertex   1.800000e+01 1.407700e+01 4.109900e+01
      vertex   3.050000e+01 6.301000e+00 4.109900e+01
      vertex   1.250000e+01 6.301000e+00 4.109900e+01
    endloop
  endfacet
  facet normal -2.144968e-15 6.033821e-16 -1.000000e+00
    outer loop
      vertex   1.800000e+01 1.407700e+01 4.109900e+01
      vertex   1.250000e+01 6.301000e+00 4.109900e+01
      vertex   1.250000e+01 1.807700e+01 4.109900e+01
    endloop
  endfacet
  facet normal -0.000000e+00 -2.368476e-15 -1.000000e+00
    outer loop
      vertex   3.050000e+01 4.347700e+01 4.109900e+01
      vertex   2.500000e+01 4.047700e+01 4.109900e+01
      vertex   1.500000e+01 4.347700e+01 4.109900e+01
    endloop
  endfacet
  facet normal 2.030122e-15 4.398598e-15 -1.000000e+00
    outer loop
      vertex   1.500000e+01 4.347700e+01 4.109900e+01
      vertex   2.500000e+01 4.047700e+01 4.109900e+01
      vertex   1.800000e+01 4.047700e+01 4.109900e+01
    endloop
  endfacet
  facet normal -2.368476e-15 -0.000000e+00 -1.000000e+00
    outer loop
      vertex   1.500000e+01 4.347700e+01 4.109900e+01
      vertex   1.800000e+01 4.047700e+01 4.109900e+01
      vertex   1.500000e+01 3.647700e+01 4.109900e+01
    endloop
  endfacet
  facet normal -2.368476e-15 0.000000e+00 -1.000000e+00
    outer loop
      vertex   1.500000e+01 3.647700e+01 4.109900e+01
      vertex   1.800000e+01 4.047700e+01 4.109900e+01
      vertex   1.800000e+01 3.647700e+01 4.109900e+01
    endloop
  endfacet
  facet normal -2.583792e-15 0.000000e+00 -1.000000e+00
    outer loop
      vertex   1.250000e+01 1.807700e+01 4.109900e+01
      vertex   1.800000e+01 1.807700e+01 4.109900e+01
      vertex   1.800000e+01 1.407700e+01 4.109900e+01
    endloop
  endfacet
  facet normal 1.000000e+00 -9.556471e-17 -2.673339e-32
    outer loop
      vertex   3.050000e+01 4.347700e+01 4.109900e+01
      vertex   3.050000e+01 4.347700e+01 6.649900e+01
      vertex   3.050000e+01 6.301000e+00 4.109900e+01
    endloop
  endfacet
  facet normal 1.000000e+00 -9.556471e-17 -3.341674e-32
    outer loop
      vertex   3.050000e+01 6.301000e+00 4.109900e+01
      vertex   3.050000e+01 4.347700e+01 6.649900e+01
      vertex   3.050000e+01 6.301000e+00 6.649900e+01
    endloop
  endfacet
  facet normal 1.000000e+00 0.000000e+00 0.000000e+00
    outer loop
      vertex   3.050000e+01 6.301000e+00 4.109900e+01
      vertex   3.050000e+01 6.301000e+00 6.649900e+01
      vertex   3.050000e+01 3.301000e+00 2.260000e+01
    endloop
  endfacet
  facet normal 1.000000e+00 0.000000e+00 0.000000e+00
    outer loop
      vertex   3.050000e+01 3.301000e+00 2.260000e+01
      vertex   3.050000e+01 6.301000e+00 6.649900e+01
      vertex   3.050000e+01 3.301000e+00 8.500000e+01
    endloop
  endfacet
  facet normal 1.000000e+00 -0.000000e+00 0.000000e+00
    outer loop
      vertex   3.050000e+01 3.301000e+00 8.500000e+01
      vertex   3.050000e+01 6.301000e+00 6.649900e+01
      vertex   3.050000e+01 6.301000e+00 8.500000e+01
    endloop
  endfacet
  facet normal 1.000000e+00 0.000000e+00 0.000000e+00
    outer loop
      vertex   3.050000e+01 3.301000e+00 2.260000e+01
      vertex   3.050000e+01 6.301000e+00 2.260000e+01
      vertex   3.050000e+01 6.301000e+00 4.109900e+01
    endloop
  endfacet
endsolid
